<svg width="1461" height="1211" viewBox="0 0 1461 1211" fill="none" xmlns="http://www.w3.org/2000/svg">
<path d="M-7.54753 1179.93C-26.8682 1167.84 -35.8177 1142.61 -33.6079 1119.93C-31.4765 1097.03 -20.1525 1076.49 -7.34591 1057.97C25.9601 1010.69 71.3111 973.828 110.355 931.633C149.398 889.438 183.693 837.319 186.014 778.423C189.701 686.596 117.869 611.009 57.6253 541.553C41.9014 523.386 26.0416 503.627 21.0045 479.958C14.4407 449.828 27.2723 418.377 47.1747 395.489C67.0772 372.602 93.0098 356.799 118.372 340.745C199.903 288.854 280.44 228.184 325.25 141.038C370.06 53.8929 362.677 -87.0714 291.321 -234.377" stroke="url(#paint0_linear_1_96)" stroke-width="5" stroke-miterlimit="10"/>
<path opacity="0.9756" d="M292.165 -230.846C335.061 -145.653 355.716 -76.3539 352.68 -2.62379C350.592 50.0765 337.053 98.2386 317.567 134.587C299.727 168.427 276.827 198.333 250.89 225.88C240.768 236.567 230.41 246.64 219.56 256.666C194.15 280.019 167.385 301.073 139.786 320.567C131.764 326.222 123.743 331.878 115.642 337.329C98.7724 348.956 81.3322 360.332 66.0232 374.18C59.8897 379.817 53.9131 385.864 48.5849 392.366C39.7309 403.272 32.3595 416.194 27.4752 430.041C22.1566 445.23 19.7383 461.186 22.4146 476.835C23.4994 482.76 25.204 488.448 27.6068 494.104C34.1382 509.92 45.1367 523.791 55.8215 536.843C66.5062 549.894 77.7611 563.197 88.8878 576.784C116.837 611.405 143.603 647.888 159.262 688.156C169.351 713.882 174.895 741.349 173.514 770.529C172.479 789.479 168.622 807.865 162.356 825.529C149.341 862.688 126.092 896.015 100.99 925.121C75.5529 954.59 47.4144 981.336 21.6921 1010.68C9.7962 1024.16 -1.37276 1038.3 -11.4512 1053.43C-23.9728 1072.08 -35.1399 1093.04 -37.2712 1115.93C-39.4026 1138.82 -31.073 1164.28 -12.2937 1176.81" stroke="url(#paint1_linear_1_96)" stroke-width="5" stroke-miterlimit="10"/>
<path opacity="0.9512" d="M292.663 -232.691C335.385 -150.187 352.202 -81.8192 347.092 -9.17355C343.422 42.4887 328.742 90.1482 308.716 126.939C290.384 160.732 267.355 190.923 241.575 218.879C231.738 229.692 221.252 240.049 210.894 250.121C186.133 273.93 160.715 295.407 134.876 315.167C127.346 320.869 119.609 326.65 112 332.147C95.9069 343.947 79.6567 355.337 65.3311 369.278C59.4042 374.836 53.9191 380.929 49.0827 387.478C40.927 398.352 34.1257 411.524 29.0348 425.451C23.588 440.924 20.8062 456.549 22.834 471.742C23.6337 477.542 25.2598 483.025 27.3776 488.555C33.2604 503.915 43.1971 517.488 53.2334 530.084C63.063 542.758 73.5411 555.889 83.5276 568.973C109.196 602.589 133.76 638.271 147.659 678.273C156.765 703.907 161.611 731.406 159.816 760.745C158.653 779.978 154.796 798.364 148.816 816.154C136.164 853.643 114.469 887.315 90.7131 916.845C66.7509 946.454 39.9592 973.623 15.3772 1003.47C4.05137 1017.2 -6.83253 1031.47 -16.6259 1046.73C-28.784 1065.71 -39.666 1086.78 -41.9256 1109.96C-44.1851 1133.14 -36.0621 1158.68 -17.9028 1171.45" stroke="url(#paint2_linear_1_96)" stroke-width="5" stroke-miterlimit="10"/>
<path opacity="0.9268" d="M283.007 -234.036C334.992 -166.348 347.44 -88.6848 339.971 -17.2494C334.512 33.4541 318.978 80.7364 298.252 117.56C279.429 151.306 256.272 181.781 230.934 210.272C221.175 221.29 210.768 231.852 200.774 242.255C176.739 266.725 152.668 288.626 128.382 308.729C121.137 314.557 114.099 320.306 106.854 326.134C91.7436 338.026 76.5552 349.714 63.3411 363.465C57.9059 369.069 52.8341 375.004 48.0761 381.758C40.412 392.678 34.1024 405.897 29.2966 419.949C23.8498 435.422 20.5763 451.001 22.034 465.942C22.5486 471.616 23.9681 477.179 25.7224 482.378C30.9567 497.282 40.0382 510.478 49.0911 522.98C58.144 535.483 67.6885 548.032 76.8983 560.944C100.571 593.68 122.57 628.231 134.787 668.173C142.703 693.792 146.851 721.324 144.85 750.742C143.686 769.975 139.701 788.645 133.799 806.64C121.511 844.46 101.084 878.351 78.6753 908.304C56.06 938.336 30.8218 965.85 7.1734 996.278C-3.58232 1010.26 -14.1027 1024.86 -23.8177 1040.32C-35.6123 1059.63 -46.2093 1080.84 -48.3904 1104.22C-50.5715 1127.6 -42.9402 1153.09 -25.5288 1166.38" stroke="url(#paint3_linear_1_96)" stroke-width="5" stroke-miterlimit="10"/>
<path opacity="0.9024" d="M285.007 -238.088C332.717 -172.286 341.637 -97.0291 331.602 -26.7247C324.562 22.9407 307.965 69.9252 286.542 106.781C267.226 140.481 243.941 171.24 218.839 200.346C209.159 211.568 199.115 222.46 189.12 232.864C165.734 257.79 143.295 280.239 120.278 300.562C113.603 306.641 106.771 312.311 100.224 318.106C86.0975 330.092 71.8924 341.873 59.6617 355.716C54.7181 361.367 49.9314 367.427 45.5867 374.023C38.6993 385.115 32.8029 398.176 27.8689 412.513C22.5005 428.19 18.657 443.518 19.5446 458.208C19.7741 463.756 20.9086 469.193 22.5845 474.187C26.9635 488.714 35.1899 501.533 43.3876 513.659C51.5853 525.784 60.0681 538.035 68.6293 550.491C90.0217 582.221 109.612 616.051 120.276 655.649C127.13 680.97 130.579 708.535 128.243 738.316C126.873 757.628 122.76 776.582 117.271 794.419C105.631 832.694 86.4731 866.804 65.3328 896.976C44.0643 927.431 20.3795 955.29 -2.20709 986.016C-12.3927 1000.25 -22.628 1014.97 -31.9795 1030.77C-43.489 1050.2 -53.9291 1071.82 -56.0318 1095.4C-58.4195 1118.86 -50.9164 1144.64 -34.0465 1158.37" stroke="url(#paint4_linear_1_96)" stroke-width="5" stroke-miterlimit="10"/>
<path opacity="0.878" d="M286.047 -243.418C329.402 -179.706 334.588 -106.776 322.351 -37.2725C313.6 11.6389 296.07 58.0416 274.233 95.0558C254.426 128.709 231.013 159.752 206.067 189.267C196.465 200.695 186.5 211.792 177.076 222.446C154.416 248.033 133.324 270.907 112.067 291.494C105.884 297.62 99.622 303.541 93.2818 309.257C80.1385 321.336 66.9952 333.415 55.6694 347.146C50.9324 352.718 46.6374 358.825 42.7844 365.467C36.3887 376.606 31.0624 389.918 26.335 404.176C21.0451 420.058 16.6314 435.134 16.8705 449.368C17.0216 454.712 17.871 460.023 19.0552 464.971C22.7857 479.042 29.9503 491.563 37.4994 503.232C44.842 514.98 52.4695 526.854 59.969 539.012C79.1594 569.942 96.3908 602.562 105.579 642.02C111.451 667.248 113.995 694.925 111.659 724.705C110.082 744.097 105.969 763.05 100.637 781.297C89.3606 819.903 71.5492 854.436 51.9623 884.952C31.6772 915.501 9.33929 943.783 -12.1071 975.012C-22.0077 989.372 -31.6729 1004.35 -40.6609 1020.47C-51.8069 1040.24 -61.962 1061.98 -64.2713 1085.64C-66.5805 1109.3 -59.5691 1135.04 -43.4472 1149.29" stroke="url(#paint5_linear_1_96)" stroke-width="5" stroke-miterlimit="10"/>
<path opacity="0.8537" d="M286.251 -250.308C325.252 -188.685 326.989 -117.957 312.186 -49.5847C301.853 -1.71123 283.183 44.1887 260.726 81.4404C240.428 115.047 216.965 146.578 192.176 176.504C182.652 188.136 172.972 199.358 163.705 210.423C141.694 236.466 121.948 259.763 102.245 280.695C96.5532 286.867 90.5765 292.914 84.9347 298.597C72.8532 310.974 60.6148 322.941 50.1939 336.561C45.9486 342.179 42.0668 348.128 38.4988 354.896C32.8014 366.002 27.9668 379.361 23.1112 393.902C17.8998 409.989 12.916 424.814 12.5849 438.797C12.5294 444.219 13.0153 449.2 14.1211 453.943C16.9964 467.637 23.5125 479.702 29.9999 491.073C36.4872 502.445 43.2596 513.941 49.9038 525.722C66.8138 555.647 81.8432 587.466 89.2717 626.659C93.8745 651.668 96.0056 679.503 93.2562 709.442C91.4731 728.912 87.4381 748.071 82.3912 766.443C71.4784 805.38 54.9354 840.132 36.6954 871.072C18.2488 902.091 -2.53568 930.717 -22.8419 962.448C-32.1723 977.059 -41.474 992.364 -50.177 1008.61C-60.9595 1028.71 -70.8295 1050.58 -73.267 1074.52C-75.7044 1098.47 -69.1062 1124.36 -53.3976 1138.78" stroke="url(#paint6_linear_1_96)" stroke-width="5" stroke-miterlimit="10"/>
<path opacity="0.8293" d="M285.444 -257.984C320.169 -198.246 318.3 -130.129 301.01 -62.6829C289.095 -15.8474 269.569 29.6755 246.286 67.2437C225.496 100.804 201.905 132.619 177.273 162.954C167.828 174.791 158.226 186.218 149.244 197.408C127.96 224.112 109.768 247.754 91.4112 269.11C86.0046 275.407 80.7263 281.421 75.3695 287.23C64.2713 299.7 53.0163 311.761 43.5787 325.474C39.8251 331.138 36.1499 337.008 33.0736 343.822C27.8679 354.975 23.6034 368.585 18.7478 383.127C13.5363 399.213 8.1393 414.197 7.15969 427.723C6.81912 433.02 7.01998 437.875 7.84069 442.493C10.0675 455.73 15.5217 467.497 21.1539 478.492C26.7861 489.486 32.7034 500.606 38.4925 512.01C53.2005 541.134 65.9494 571.948 71.6178 610.875C75.2373 635.791 76.4634 663.738 73.5074 693.756C71.5177 713.306 67.5612 732.669 62.5927 751.246C52.3285 790.639 37.0538 825.609 20.0822 856.768C3.1891 888.131 -16.2485 917.181 -35.4145 949.415C-44.1748 964.278 -53.1915 979.708 -61.6094 996.083C-72.0284 1016.51 -81.5349 1038.71 -83.9724 1062.65C-86.4099 1086.6 -80.1464 1112.86 -65.1858 1127.79" stroke="url(#paint7_linear_1_96)" stroke-width="5" stroke-miterlimit="10"/>
<path opacity="0.8049" d="M284.295 -267.171C314.665 -209.523 309.14 -143.529 289.57 -77.0881C276.072 -31.2906 255.485 13.9344 231.504 51.5352C209.937 84.9234 186.217 117.022 162.028 147.892C152.582 159.729 143.344 171.487 134.518 183.087C113.883 210.247 97.1164 234.517 80.2348 256.012C75.3199 262.357 70.3266 268.496 65.5399 274.557C55.4251 287.12 45.2319 299.478 36.6992 313.079C33.1522 318.665 30.0472 324.786 27.3841 331.442C22.8767 342.562 19.1039 356.219 14.3267 370.965C8.98704 387.335 3.22652 401.989 1.59837 415.059C0.972741 420.23 1.09518 424.88 1.63083 429.372C3.00247 442.233 7.80817 453.544 12.5852 464.161C17.3622 474.778 22.2177 485.6 27.1516 496.627C39.5791 524.746 50.0476 554.554 54.241 593.342C56.7987 617.96 57.405 646.144 54.0358 676.321C51.8394 695.949 47.9613 715.518 43.2779 734.22C33.3772 773.943 19.4494 809.338 4.03125 840.841C-11.5151 872.628 -29.4776 901.817 -47.5034 934.554C-55.9002 949.747 -64.3468 965.429 -72.4796 981.929C-82.6136 1002.48 -91.9632 1025.09 -94.4007 1049.04C-96.9663 1073.27 -90.9879 1099.4 -76.5687 1114.77" stroke="url(#paint8_linear_1_96)" stroke-width="5" stroke-miterlimit="10"/>
<path opacity="0.7805" d="M282.339 -277.226C308.434 -221.463 299.302 -158.08 277.245 -92.5656C262.166 -47.8061 240.516 -2.87884 215.837 34.7545C194.063 68.2219 170.216 100.605 146.261 132.089C136.895 144.131 127.734 156.094 119.401 167.74C99.4926 195.561 83.9941 220.049 68.8726 241.81C64.4494 248.201 59.9477 254.387 55.6527 260.494C46.3146 273.23 37.3114 285.602 29.9687 299.217C26.9134 304.849 24.2215 310.812 21.8435 317.594C17.9062 328.965 14.5466 342.464 9.8479 357.414C4.58668 373.99 -1.74395 388.391 -3.94222 401.21C-4.8529 406.256 -5.01554 410.78 -4.76495 415.147C-4.04186 427.551 -0.297928 438.564 3.62393 448.804C7.54579 459.045 11.5461 469.49 15.6248 480.14C25.7719 507.253 34.0384 536.261 36.4717 574.783C38.046 599.308 37.8756 627.32 34.1715 657.86C31.7685 677.568 27.9689 697.341 23.5705 716.169C14.2399 756.143 1.58053 791.756 -12.6974 823.762C-26.9753 855.768 -43.0993 885.428 -60.1915 918.746C-68.0966 933.985 -76.1797 949.998 -83.9491 966.829C-93.5129 987.636 -102.784 1010.44 -105.35 1034.68C-107.837 1059.11 -102.272 1085.4 -88.6791 1101.09" stroke="url(#paint9_linear_1_96)" stroke-width="5" stroke-miterlimit="10"/>
<path opacity="0.7561" d="M280.198 -288.383C301.939 -234.71 289.358 -173.529 264.735 -109.145C248.073 -65.4232 225.362 -20.7938 200.063 17.0769C177.798 50.4977 153.615 83.2436 130.024 115.059C120.736 127.305 111.654 139.473 103.684 151.449C84.4246 179.727 70.558 204.764 56.7834 226.949C52.6452 233.465 48.6352 239.698 44.8319 245.851C36.5556 258.885 28.4573 271.145 22.0979 284.853C19.4559 290.327 17.0491 296.416 14.9561 303.323C11.5105 314.741 8.92765 328.412 4.02229 343.442C-1.23892 360.017 -8.06124 374.372 -10.8296 386.94C-11.8187 391.781 -12.2664 396.18 -12.3009 400.42C-12.433 412.448 -9.33757 423.004 -6.4775 432.947C-3.41081 442.81 -0.187261 453.083 3.03631 463.356C10.9814 489.668 16.889 517.466 17.6406 555.928C18.1532 580.155 17.1563 608.484 13.2457 639.102C10.7145 659.094 6.91485 678.867 2.59489 697.9C-6.29377 738.41 -17.6848 774.242 -30.4876 806.387C-43.2121 838.737 -57.9893 868.821 -74.0196 902.437C-81.3546 917.928 -89.1527 934.066 -96.5585 951.227C-105.759 972.364 -114.745 995.298 -117.439 1019.81C-120.133 1044.33 -114.981 1070.77 -101.644 1087.04" stroke="url(#paint10_linear_1_96)" stroke-width="5" stroke-miterlimit="10"/>
<path opacity="0.7317" d="M277.951 -300.438C295.415 -248.65 279.228 -190.08 252.119 -126.622C233.953 -83.7341 210.102 -39.6075 184.311 -1.78326C161.554 31.591 137.243 64.6209 113.888 97.0503C104.884 109.423 95.9595 122 88.0678 134.181C69.4567 162.915 57.0154 188.581 44.7158 210.905C41.0693 217.468 37.551 223.747 34.0327 230.026C26.7398 243.152 19.7032 255.711 14.2488 269.307C12.0984 274.828 9.89826 280.837 8.29692 287.791C5.5496 299.176 3.25183 312.973 -1.36847 328.128C-6.55125 344.909 -13.9437 359.012 -17.5672 371.203C-18.8414 375.918 -19.5741 380.191 -19.8937 384.306C-20.6743 395.877 -18.6407 406.136 -16.4292 415.623C-14.2177 425.109 -11.8492 435.005 -9.68746 444.98C-3.81621 470.208 -0.317269 497.284 -1.32572 535.48C-2.00311 559.694 -3.49168 587.976 -7.81555 618.753C-10.5534 638.824 -14.2745 658.801 -18.3094 677.96C-26.8346 718.8 -36.9572 754.851 -48.1282 787.546C-59.5058 820.319 -72.8079 850.542 -87.6196 884.866C-94.5912 900.687 -101.819 917.076 -109.018 934.159C-117.855 955.627 -126.763 978.765 -129.378 1003.49C-131.865 1027.92 -127.127 1054.52 -114.617 1071.1" stroke="url(#paint11_linear_1_96)" stroke-width="5" stroke-miterlimit="10"/>
<path opacity="0.7073" d="M275.803 -313.472C288.913 -263.774 269.276 -207.406 239.68 -144.875C219.932 -103.024 195.147 -59.4793 168.608 -21.1338C145.36 12.194 120.921 45.5078 97.7221 78.3468C88.7972 90.9238 79.9508 103.706 72.5507 115.934C54.6666 145.328 43.7788 171.339 32.826 194.086C29.6712 200.696 26.5164 207.305 23.618 213.347C17.3084 226.567 11.2551 239.218 6.78407 252.908C4.91873 258.554 3.21027 264.609 1.94373 271.2C-0.311919 282.632 -1.91138 296.396 -6.65987 311.836C-11.7642 328.821 -19.7268 342.673 -23.9204 354.613C-25.4797 359.202 -26.4974 363.349 -26.8954 367.259C-28.5312 378.454 -27.1461 388.257 -25.9964 397.445C-24.8467 406.633 -23.1268 416.073 -21.8202 425.671C-18.151 450.099 -17.0109 475.965 -19.4944 514.021C-21.2336 537.937 -23.5486 566.535 -27.8725 597.312C-30.817 617.462 -34.5381 637.44 -38.4161 657.008C-46.3712 698.1 -55.147 734.574 -65.2562 767.567C-75.3654 800.559 -87.0357 831.331 -100.992 866.032C-107.394 882.105 -114.336 898.62 -121.172 916.033C-129.724 937.626 -138.268 961.095 -140.884 985.816C-143.549 1011.03 -139.302 1037.58 -127.333 1054.6" stroke="url(#paint12_linear_1_96)" stroke-width="5" stroke-miterlimit="10"/>
<path opacity="0.6829" d="M273.832 -327.278C282.666 -279.465 259.63 -225.787 227.34 -164.103C206.01 -123.29 180.163 -80.0434 152.926 -41.6652C129.186 -8.38401 104.619 25.2138 81.6553 58.6672C72.8089 71.449 64.2476 84.3566 57.0044 96.9941C39.7688 126.845 30.2279 153.279 21.0352 176.292C18.372 182.948 15.7089 189.604 13.174 195.976C7.84774 209.289 2.77784 222.033 -0.709882 235.816C-2.16198 241.304 -3.37876 247.406 -4.36024 254.123C-5.83916 265.727 -7.15357 279.616 -11.6954 294.977C-16.7998 311.962 -25.254 325.768 -30.0177 337.456C-31.862 341.92 -32.9583 345.862 -33.8479 349.726C-36.1323 360.464 -35.809 369.969 -35.5144 378.78C-35.2198 387.591 -34.5618 396.733 -33.9037 405.875C-32.5149 429.297 -33.5769 454.363 -37.8989 491.949C-40.6214 515.772 -43.7131 544.198 -48.3718 575.338C-51.5229 595.567 -55.1656 615.75 -58.7586 635.444C-66.2717 677.071 -73.8575 713.559 -82.4132 746.896C-90.9689 780.233 -101.292 811.428 -114.187 846.427C-120.018 862.751 -126.598 879.596 -133.148 897.135C-141.337 919.059 -149.596 942.654 -152.34 967.659C-155.083 992.664 -150.964 1019.5 -139.744 1037.05" stroke="url(#paint13_linear_1_96)" stroke-width="5" stroke-miterlimit="10"/>
<path opacity="0.6585" d="M272.374 -342.218C276.854 -296.495 250.369 -245.019 215.513 -184.466C192.808 -144.771 165.692 -101.743 137.757 -63.3318C113.603 -29.8923 88.8297 3.78457 66.3082 37.7733C57.5402 50.7599 49.0573 63.8723 42.1776 76.8403C25.669 107.352 17.4749 134.209 9.75717 157.362C7.3791 164.144 5.20765 170.847 3.16439 177.265C-1.1785 190.671 -5.18661 203.713 -7.76942 217.384C-8.72985 222.919 -9.74003 228.942 -10.2298 235.705C-11.2171 247.356 -11.8332 261.213 -16.5032 276.857C-21.7357 294.126 -30.5534 307.601 -35.9657 318.833C-38.0951 323.171 -39.4764 326.988 -40.4445 330.647C-43.584 341.008 -44.1159 350.136 -44.4699 358.491C-44.952 367.13 -45.2276 375.69 -45.6313 384.534C-46.4445 407.156 -49.7869 431.216 -55.869 468.537C-59.6533 492.062 -63.365 520.725 -68.4369 552.024C-71.7945 572.332 -75.3588 592.719 -78.8733 612.618C-85.8164 654.496 -92.0553 691.408 -99.2642 725.169C-106.552 758.724 -115.321 790.264 -126.998 825.971C-132.337 842.341 -138.553 859.517 -144.74 877.386C-152.565 899.64 -160.539 923.361 -163.411 948.65C-166.283 973.938 -162.449 1000.65 -151.77 1018.64" stroke="url(#paint14_linear_1_96)" stroke-width="5" stroke-miterlimit="10"/>
<path opacity="0.6341" d="M271.458 -357.602C271.456 -313.685 241.777 -264.978 204.513 -205.146C180.304 -166.284 152.049 -123.759 123.493 -85.1107C98.8477 -51.7178 73.9461 -17.7569 51.5814 16.6414C42.8918 29.8329 34.694 43.0709 27.8927 56.2437C12.2393 87.1323 5.47044 114.618 -0.900434 138.194C-2.78682 145.023 -4.4666 151.772 -6.01819 158.237C-9.2993 171.941 -12.4024 184.871 -14.0019 198.635C-14.7557 204.091 -15.2742 210.16 -15.2724 216.97C-15.5613 228.588 -15.814 242.776 -20.484 258.42C-25.6381 275.894 -35.0259 289.118 -41.0083 300.098C-43.2161 304.232 -45.0107 308.207 -46.3422 311.535C-50.1303 321.44 -51.5173 330.191 -52.9331 338.248C-54.2704 346.51 -55.4012 354.693 -56.66 363.16C-59.7537 384.776 -65.3765 407.831 -73.1403 445.092C-77.9079 468.524 -82.5245 497.299 -87.803 528.676C-91.1607 548.984 -95.0598 569.735 -98.0826 589.68C-104.299 632.219 -109.269 669.35 -115.21 703.329C-120.944 737.229 -128.367 769.193 -138.981 805.197C-143.957 821.898 -149.681 839.12 -155.712 857.399C-163.251 879.779 -171.069 903.909 -173.94 929.198C-176.734 954.692 -173.52 981.642 -163.461 999.865" stroke="url(#paint15_linear_1_96)" stroke-width="5" stroke-miterlimit="10"/>
<path opacity="0.6098" d="M271.211 -373.713C266.855 -331.886 233.727 -285.381 193.897 -226.68C168.106 -188.856 138.995 -146.707 109.535 -107.947C84.3977 -74.6011 59.3679 -40.3563 37.2385 -5.34359C28.6274 8.05267 20.508 21.4955 14.2768 34.9196C-0.649623 66.4692 -6.07158 94.3787 -10.9674 118.094C-12.2837 125.174 -13.7569 131.844 -14.8168 138.356C-17.3212 152.232 -19.2344 165.177 -19.6439 178.954C-19.906 184.456 -19.9328 190.572 -19.931 197.382C-19.7282 209.047 -19.2825 223.202 -23.8742 239.051C-28.9498 256.729 -38.7011 269.623 -45.4603 280.431C-47.9531 284.439 -49.8261 288.209 -51.4427 291.412C-56.086 300.94 -58.3282 309.314 -60.5207 317.199C-62.7132 325.084 -64.6991 332.89 -67.0198 341.059C-72.3939 361.67 -80.2187 383.924 -89.5359 420.84C-95.3653 443.974 -100.602 472.987 -106.294 504.522C-109.858 524.91 -113.678 545.865 -116.416 565.936C-122.554 608.68 -126.256 646.029 -130.643 680.353C-135.03 714.676 -140.9 746.985 -150.374 783.491C-154.78 800.444 -160.141 817.997 -165.964 836.196C-173.141 858.907 -180.673 883.162 -183.466 908.656C-186.466 934.229 -183.38 961.463 -173.863 980.128" stroke="url(#paint16_linear_1_96)" stroke-width="5" stroke-miterlimit="10"/>
<path opacity="0.5854" d="M272.125 -390.502C263.414 -350.765 227.043 -306.54 184.441 -248.891C157.275 -212.184 126.896 -170.255 97.0221 -131.337C71.3935 -98.0367 46.2357 -63.508 24.2631 -28.0857C15.7305 -14.4846 7.68949 -0.837061 1.74339 12.7128C-12.5345 44.7185 -16.6097 73.0516 -19.667 97.2373C-20.4916 104.364 -21.4731 111.08 -22.2479 117.718C-23.769 131.687 -24.6204 144.929 -24.1249 158.595C-23.8954 164.144 -23.7156 170.181 -23.2221 177.037C-22.2426 188.874 -21.5903 202.95 -26.1035 219.004C-31.1792 236.682 -41.4222 249.529 -48.7514 260.086C-51.5293 263.968 -53.6873 267.613 -55.589 270.69C-60.8808 279.762 -63.9782 287.758 -67.0259 295.266C-70.0735 302.774 -73.1212 310.283 -76.012 318.2C-83.5881 338.011 -93.7719 359.054 -104.771 395.91C-111.584 418.951 -117.725 448.075 -123.623 479.69C-127.316 500.362 -131.136 521.317 -133.796 541.593C-139.363 584.588 -141.718 622.361 -144.965 657.187C-148.084 691.729 -152.322 724.587 -160.734 761.392C-164.648 778.39 -169.646 796.274 -175.184 814.599C-181.79 837.561 -189.244 862.021 -192.166 887.799C-195.087 913.577 -192.493 940.764 -183.723 959.951" stroke="url(#paint17_linear_1_96)" stroke-width="5" stroke-miterlimit="10"/>
<path opacity="0.561" d="M273.788 -407.812C260.801 -369.96 221.109 -328.221 175.813 -271.42C147.143 -235.546 115.624 -194.119 85.0519 -155.168C58.9317 -121.915 33.6456 -87.1022 11.9083 -51.0654C3.45413 -37.2596 -4.22335 -23.2815 -10.091 -9.52684C-23.6419 23.1398 -26.1636 51.8174 -27.9526 76.2219C-28.4921 83.4738 -28.6968 90.3628 -28.98 97.0469C-29.5177 111.109 -29.3858 124.444 -27.9855 137.999C-27.5493 143.468 -26.8778 149.552 -25.8926 156.454C-24.2148 168.259 -22.9924 182.586 -27.7122 198.719C-32.7094 216.602 -43.5226 229.198 -51.5004 239.299C-54.5633 243.055 -56.7998 246.495 -58.9865 249.446C-65.1334 258.141 -69.0861 265.761 -72.9889 272.892C-76.8917 280.023 -80.7161 287.359 -84.5405 294.694C-94.3971 313.499 -106.783 333.743 -119.542 370.333C-127.623 393.155 -134.256 422.233 -140.282 454.132C-144.182 474.882 -147.924 496.043 -150.298 516.444C-155.502 559.77 -156.589 597.761 -158.282 632.932C-159.848 667.819 -162.817 700.895 -170.01 738.407C-173.561 755.737 -177.988 773.871 -183.164 792.527C-189.691 815.694 -196.782 840.485 -199.703 866.262C-202.753 892.324 -200.365 919.591 -192.216 939.015" stroke="url(#paint18_linear_1_96)" stroke-width="5" stroke-miterlimit="10"/>
<path opacity="0.5366" d="M276.69 -425.599C259.349 -389.837 216.414 -350.379 168.346 -294.629C138.3 -259.872 105.513 -218.664 74.2426 -179.681C47.6308 -146.474 22.2165 -111.377 0.921197 -74.8053C-7.24796 -60.8737 -15.0536 -46.6117 -20.3512 -32.6057C-33.2535 0.517119 -34.35 29.823 -34.5854 54.5719C-34.6333 61.8704 -34.553 68.885 -34.3445 75.6157C-33.8988 89.7705 -32.7835 103.199 -30.3999 116.847C-29.472 122.362 -28.3089 128.493 -27.117 135.316C-24.9476 147.167 -23.2336 161.541 -27.6683 177.8C-32.7937 195.967 -43.9703 208.232 -52.5182 218.082C-55.6596 221.633 -58.3877 225.026 -60.8595 227.852C-67.8616 236.17 -72.6694 243.413 -77.4274 250.167C-82.1854 256.921 -86.8649 263.879 -91.7511 270.917C-103.603 288.843 -118.554 307.955 -132.995 344.485C-142.059 367.214 -149.597 396.403 -155.831 428.381C-159.936 449.211 -163.678 470.371 -165.896 491.182C-170.658 535.043 -170.476 573.253 -170.695 608.564C-170.991 643.669 -172.122 677.216 -178.461 715.105C-181.442 732.686 -185.584 750.946 -190.395 769.932C-196.353 793.35 -203.365 818.346 -206.414 844.407C-209.464 870.469 -207.49 897.894 -200.01 918.044" stroke="url(#paint19_linear_1_96)" stroke-width="5" stroke-miterlimit="10"/>
<path opacity="0.5122" d="M280.833 -443.858C259.216 -409.981 212.753 -372.929 162.12 -318.311C130.777 -284.466 96.7709 -243.966 64.7525 -204.461C37.649 -171.301 12.1065 -135.92 -9.03192 -98.9384C-17.1226 -84.8021 -24.6433 -70.4144 -29.8624 -56.2036C-42.0378 -22.4199 -41.7873 7.30961 -40.3411 32.119C-39.8973 39.4641 -39.3253 46.5252 -38.8318 53.3815C-37.3243 67.8343 -35.3042 81.1513 -31.9371 94.8919C-30.596 100.249 -29.1479 106.505 -27.4643 113.376C-24.5182 125.399 -22.3124 139.819 -26.9538 156.157C-32.0792 174.324 -43.7474 186.543 -52.8655 196.141C-56.2919 199.567 -59.3051 202.834 -61.8553 205.455C-69.506 213.317 -75.1689 220.182 -80.7821 226.559C-86.3953 232.936 -91.93 239.518 -97.6713 246.179C-111.804 263.099 -128.957 281.411 -144.951 317.596C-154.999 340.232 -163.235 369.454 -169.882 401.59C-174.194 422.499 -177.858 443.864 -179.79 464.801C-183.982 508.913 -182.532 547.342 -181.532 583.36C-180.482 618.889 -180.059 652.78 -185.257 691.172C-187.668 709.004 -191.525 727.39 -196.051 746.502C-201.646 770.25 -208.372 795.372 -211.344 821.638C-214.315 847.904 -212.96 875.567 -205.893 895.875" stroke="url(#paint20_linear_1_96)" stroke-width="5" stroke-miterlimit="10"/>
<path opacity="0.4878" d="M286.5 -462.468C260.529 -430.681 210.824 -395.91 157.418 -342.344C124.571 -309.332 89.425 -269.334 56.7082 -229.797C29.1914 -196.479 3.44239 -161.019 -17.4607 -123.423C-25.473 -109.082 -32.9152 -94.4893 -37.7708 -79.948C-49.2976 -45.7081 -47.4938 -15.6343 -44.7007 9.59868C-43.7653 16.9903 -42.9082 24.1771 -41.7164 31.0009C-39.2256 45.5467 -36.1436 59.1616 -31.8716 72.7904C-30.2455 78.2736 -28.3841 84.3712 -26.2089 91.2881C-22.771 103.358 -19.867 117.745 -24.4299 134.288C-29.4769 152.66 -41.7153 164.627 -51.4818 173.769C-55.1933 177.069 -58.285 180.132 -61.1203 182.627C-69.6261 190.112 -76.1442 196.601 -82.6125 202.601C-89.2875 208.68 -95.6774 214.884 -102.067 221.089C-118.402 237.209 -137.835 254.515 -155.59 290.435C-166.699 312.773 -175.555 342.233 -182.615 374.527C-187.134 395.515 -190.719 417.085 -192.573 438.226C-196.323 482.874 -193.605 521.522 -191.129 557.679C-188.526 593.553 -186.756 627.867 -191.1 666.636C-192.94 684.719 -196.434 703.436 -200.675 722.674C-205.906 746.752 -212.347 771.999 -215.447 798.55C-218.546 825.1 -217.477 852.637 -211.158 873.467" stroke="url(#paint21_linear_1_96)" stroke-width="5" stroke-miterlimit="10"/>
<path opacity="0.4634" d="M293.77 -481.222C263.523 -451.32 210.497 -419.035 154.397 -366.315C120.254 -334.216 83.7603 -294.642 50.6304 -254.946C22.6219 -221.674 -3.25532 -185.931 -24.0016 -147.925C-31.9354 -133.379 -39.0925 -118.661 -43.8697 -103.915C-54.6696 -69.0141 -51.5188 -38.5166 -47.1723 -12.9392C-45.9518 -5.42193 -44.3965 1.73221 -42.9196 8.68163C-39.4454 23.3205 -35.3801 37.0285 -30.1248 50.7505C-28.0855 56.0754 -25.6539 62.4243 -23.2721 69.262C-19.136 81.299 -15.9468 95.8123 -20.4313 112.56C-25.3998 131.137 -38.1299 143.057 -48.7517 151.822C-52.6698 155.202 -56.1249 157.934 -59.2453 160.303C-68.3997 167.332 -75.7729 173.444 -83.303 179.146C-90.8332 184.848 -98.0782 190.676 -105.53 196.582C-124.145 211.696 -145.859 227.997 -165.295 263.857C-177.388 286.102 -187.227 315.468 -194.415 348.047C-199.141 369.114 -202.647 390.888 -204.216 412.156C-207.396 457.055 -203.616 496 -199.587 532.502C-195.715 568.595 -192.392 603.253 -195.517 642.73C-196.994 661.144 -199.996 679.907 -203.874 699.475C-208.741 723.884 -215.026 749.541 -218.204 775.886C-221.303 802.437 -220.568 830.337 -214.791 851.608" stroke="url(#paint22_linear_1_96)" stroke-width="5" stroke-miterlimit="10"/>
<path opacity="0.439" d="M302.564 -500.324C267.963 -472.512 211.772 -442.303 152.823 -390.84C117.303 -359.858 79.7483 -320.581 45.7134 -280.774C17.2133 -247.549 -8.79218 -211.521 -29.3031 -172.901C-37.1585 -158.15 -44.2372 -143.228 -48.4443 -128.23C-58.5956 -92.8731 -53.8129 -61.8264 -48.198 -36.0302C-46.4858 -28.4664 -44.6454 -21.1865 -42.5984 -13.9858C-38.3475 0.825381 -33.0922 14.5473 -26.647 28.2831C-24.1159 33.6546 -21.4777 39.9244 -18.8109 46.8878C-14.1047 59.1761 -10.2173 73.6568 -14.9084 90.4835C-19.8769 109.06 -33.0986 120.935 -44.2905 129.448C-48.287 132.623 -52.2338 135.308 -55.4326 137.473C-65.4422 144.125 -73.6706 149.859 -81.8493 155.105C-90.2346 160.43 -98.3348 165.881 -106.642 171.411C-127.537 185.519 -151.247 200.941 -172.649 236.614C-185.804 258.561 -196.263 288.165 -203.864 320.901C-208.796 342.048 -212.225 364.027 -213.509 385.42C-216.325 430.65 -210.991 469.94 -205.822 506.944C-200.604 543.46 -195.727 578.463 -197.79 618.238C-198.775 636.698 -201.335 655.996 -204.928 675.69C-209.51 700.225 -215.431 726.212 -218.737 752.842C-221.965 779.676 -221.516 807.45 -216.486 829.244" stroke="url(#paint23_linear_1_96)" stroke-width="5" stroke-miterlimit="10"/>
<path opacity="0.4146" d="M313.248 -519.446C274.371 -493.519 214.859 -465.795 153.137 -415.384C116.114 -385.236 77.4185 -346.462 42.6853 -306.622C13.6935 -273.443 -12.4401 -237.132 -32.7157 -197.897C-40.4927 -182.942 -47.4929 -167.814 -51.3365 -152.486C-60.7608 -116.468 -54.6313 -84.9977 -47.2564 -58.9363C-45.0525 -51.3259 -42.7204 -43.9994 -40.1817 -36.7521C-34.869 -21.6431 -28.7088 -8.03284 -21.2802 5.79612C-18.4641 11.2933 -15.2061 17.3257 -12.3326 24.2099C-6.92807 36.4656 -2.75561 51.0719 -7.16165 68.0243C-12.0517 86.806 -25.637 98.3497 -37.684 106.486C-41.9656 109.535 -45.9909 112.016 -49.6813 114.134C-60.546 120.409 -69.6296 125.766 -78.6634 130.635C-87.8255 135.788 -96.8593 140.657 -105.943 146.015C-129.04 159.322 -155.03 173.738 -177.986 209.068C-192.124 230.922 -203.488 260.637 -211.09 293.374C-216.15 314.804 -219.578 336.783 -220.784 358.381C-223.158 404.146 -216.635 443.45 -209.912 480.799C-203.218 517.454 -196.917 553.086 -197.918 593.158C-198.333 611.87 -200.608 631.294 -203.837 651.318C-208.056 676.183 -213.692 702.296 -216.92 729.13C-220.069 756.17 -220.033 784.102 -215.83 806.212" stroke="url(#paint24_linear_1_96)" stroke-width="5" stroke-miterlimit="10"/>
<path opacity="0.3902" d="M326.025 -538.665C282.794 -514.828 220.118 -489.18 155.624 -439.821C117.304 -410.585 77.2617 -372.234 41.9087 -332.157C12.6318 -299.104 -13.8366 -262.429 -33.7487 -222.864C-41.4473 -207.704 -48.084 -192.246 -51.9276 -176.918C-60.7034 -140.444 -53.227 -108.55 -44.2986 -82.1441C-41.8096 -74.408 -38.9075 -66.8303 -35.9556 -59.7413C-29.6595 -44.5392 -22.4375 -30.6311 -14.104 -16.9138C-10.8747 -11.5749 -7.25316 -5.21204 -3.96644 1.51393C2.13638 13.737 6.8005 28.3899 2.26627 45.6262C-2.75199 64.6918 -16.7007 75.9051 -29.3179 83.7903C-33.8845 86.7135 -38.1948 89.0688 -41.9637 90.9819C-53.477 96.8004 -63.4157 101.781 -73.5113 106.352C-83.5285 111.128 -93.6241 115.699 -103.563 120.679C-128.941 132.982 -157.211 146.393 -181.927 181.457C-197.127 203.012 -209.111 232.965 -217.125 265.86C-222.392 287.369 -225.742 309.554 -226.663 331.277C-228.467 377.293 -220.803 417.1 -212.527 454.793C-204.487 491.873 -196.632 527.848 -196.492 568.423C-196.544 587.466 -198.327 606.936 -201.272 627.086C-204.92 652.203 -210.684 678.6 -213.834 705.639C-217.189 732.757 -217.488 761.053 -213.62 783.525" stroke="url(#paint25_linear_1_96)" stroke-width="5" stroke-miterlimit="10"/>
<path opacity="0.3659" d="M340.898 -557.983C293.313 -536.235 227.472 -512.663 160.128 -464.561C120.51 -436.237 79.3279 -398.389 43.07 -358.2C13.3799 -324.989 -13.2951 -288.235 -32.9719 -248.056C-40.592 -232.691 -47.1503 -217.028 -50.4237 -201.448C-58.4725 -164.313 -49.4427 -132.075 -39.2459 -105.451C-36.2653 -97.6679 -32.8714 -90.0436 -29.6344 -82.8289C-22.3551 -67.5337 -14.1497 -53.5325 -4.83283 -39.7221C-1.11182 -34.3367 2.71631 -28.053 6.49471 -21.2805C13.1676 -8.80603 18.3234 5.8934 13.7892 23.1297C8.84939 42.4001 -5.66943 53.362 -18.8567 60.9959C-23.7084 63.7934 -28.3038 66.023 -32.3577 67.8105C-44.7261 73.252 -55.52 77.8555 -66.2642 81.9704C-77.1366 86.3692 -88.0874 90.5632 -98.8813 95.1668C-126.461 106.669 -157.012 119.074 -183.488 153.873C-199.671 175.335 -212.354 205.321 -220.781 238.374C-226.048 259.883 -229.733 282.431 -230.368 304.28C-231.809 350.626 -222.67 390.573 -213.254 428.769C-203.867 466.271 -194.33 502.308 -193.257 543.464C-192.738 562.758 -194.158 582.559 -197.024 602.914C-199.817 628.408 -205.297 654.93 -208.574 682.253C-211.852 709.576 -212.642 737.825 -209.522 760.819" stroke="url(#paint26_linear_1_96)" stroke-width="5" stroke-miterlimit="10"/>
<path opacity="0.3415" d="M358.101 -576.782C306.24 -556.92 237.156 -535.629 166.961 -488.784C125.84 -461.293 83.5179 -423.948 46.6401 -383.521C16.4583 -350.356 -10.2665 -313.114 -29.8649 -272.73C-37.2784 -257.444 -43.6798 -241.371 -46.7964 -225.382C-54.1966 -187.791 -43.7415 -154.924 -31.9912 -127.955C-28.5189 -120.126 -24.84 -112.376 -20.9048 -105.194C-12.642 -89.8057 -3.45335 -75.7115 6.84688 -61.8081C10.7745 -56.5018 15.3009 -50.2507 19.3644 -43.3525C26.7356 -30.9106 32.3831 -16.1646 27.9273 1.27649C22.9875 20.5469 7.97695 31.4622 -5.85886 38.6399C-10.9956 41.3117 -15.6694 43.3366 -20.0084 44.9984C-33.0254 49.9837 -44.6745 54.2102 -56.4805 58.0272C-68.208 62.049 -79.9355 66.0708 -91.663 70.0926C-121.523 80.5892 -154.276 92.1937 -182.512 126.727C-199.679 148.097 -213.345 177.989 -221.9 211.326C-227.374 232.915 -231.059 255.462 -231.331 277.642C-232.33 324.524 -221.922 364.689 -211.031 403.024C-200.375 440.746 -189.207 477.331 -186.993 518.991C-185.905 538.536 -187.04 558.462 -189.542 579.148C-192.542 604.721 -197.658 631.574 -201.142 658.976C-204.547 686.583 -205.544 714.911 -203.044 738.142" stroke="url(#paint27_linear_1_96)" stroke-width="5" stroke-miterlimit="10"/>
<path opacity="0.3171" d="M378.597 -593.792C322.381 -576.019 250.133 -556.804 177.166 -511.01C134.748 -484.432 91.0787 -447.51 53.7092 -407.131C23.0358 -374.012 -3.81722 -336.486 -23.1803 -295.487C-30.5153 -279.996 -36.8383 -263.719 -39.6698 -247.604C-46.3431 -209.352 -34.5412 -176.062 -21.1092 -149.033C-17.1453 -141.157 -12.9747 -133.36 -8.67594 -125.848C0.570141 -110.366 10.7422 -96.179 22.0258 -82.1825C26.4451 -76.8297 31.1781 -70.6577 35.7333 -63.713C43.8028 -51.3037 49.8137 -36.2273 45.358 -18.7861C40.4966 0.689082 24.9159 11.3531 10.51 18.2794C5.29479 20.7464 0.129345 22.7248 -4.49471 24.2609C-18.3669 28.8692 -30.8711 32.7187 -43.5323 36.1586C-56.115 39.8034 -68.6977 43.4481 -81.487 47.172C-113.343 56.789 -148.661 67.2624 -178.372 101.656C-196.807 122.807 -210.886 152.858 -219.855 186.353C-225.535 208.021 -229.142 230.773 -229.335 253.157C-229.764 300.29 -218.295 340.753 -205.772 379.639C-193.562 417.704 -181.047 454.713 -177.772 496.671C-176.192 516.262 -176.884 536.724 -179.102 557.535C-181.817 583.234 -186.648 610.212 -190.053 637.819C-193.459 665.426 -194.869 693.913 -193.038 717.87" stroke="url(#paint28_linear_1_96)" stroke-width="5" stroke-miterlimit="10"/>
<path opacity="0.2927" d="M401.5 -610.079C341.009 -594.192 265.312 -577.178 189.907 -532.799C145.986 -507.054 101.176 -470.635 63.1082 -430.223C31.9431 -397.151 4.96197 -359.341 -14.1658 -317.728C-21.4224 -302.032 -27.4603 -285.629 -30.135 -269.105C-36.1597 -230.396 -22.8043 -196.762 -7.94712 -169.104C-3.61966 -160.898 0.964178 -153.259 5.96123 -145.779C16.2691 -130 27.4245 -115.72 39.5345 -102.04C44.4455 -96.6405 49.6702 -90.4218 54.432 -83.5563C62.9932 -71.1004 69.7024 -56.0567 65.1185 -38.3317C60.3355 -18.6516 44.2632 -8.03403 29.2088 -1.56386C23.7085 0.777509 18.258 2.63011 13.5555 3.9614C-0.965219 8.11354 -14.3246 11.5861 -27.8409 14.649C-41.4854 17.9959 -54.9233 21.2635 -68.3612 24.5313C-102.497 33.1428 -140.018 42.8157 -171.489 76.9441C-190.907 98.0021 -205.891 128.165 -215.067 161.739C-220.953 183.486 -224.481 206.443 -224.39 228.953C-224.455 276.416 -211.639 317.303 -197.848 356.407C-184.37 394.691 -170.223 432.25 -166.014 474.789C-164.07 494.711 -164.271 515.219 -166.204 536.156C-168.477 562.39 -173.229 589.573 -176.635 617.18C-180.168 645.071 -181.785 673.637 -180.574 697.832" stroke="url(#paint29_linear_1_96)" stroke-width="5" stroke-miterlimit="10"/>
<path opacity="0.2683" d="M427.512 -625.676C362.666 -611.879 283.805 -596.941 205.55 -553.82C160.409 -528.782 114.381 -493.07 75.4865 -452.342C43.8297 -419.316 16.7204 -381.222 -2.04385 -339.278C-9.22202 -323.378 -15.1815 -306.77 -17.3645 -290.199C-22.6622 -250.83 -7.95997 -216.772 8.37228 -188.974C13.1914 -180.722 18.2669 -173.037 23.549 -165.431C34.6336 -149.48 46.979 -135.185 60.279 -121.491C65.3966 -116.171 71.113 -109.906 76.1598 -102.915C85.4978 -90.2868 92.4136 -75.3221 88.1147 -57.4713C83.1251 -37.7122 66.7678 -27.2203 51.0647 -21.2063C45.2794 -18.9906 39.8289 -17.138 34.5563 -16.0581C19.1804 -12.2829 4.88739 -9.39221 -9.3272 -6.29669C-23.8269 -3.32683 -38.1199 -0.436084 -52.4129 2.45464C-88.8295 10.0608 -128.552 18.9331 -161.783 52.7963C-182.263 73.5564 -197.867 103.956 -207.456 137.689C-213.549 159.515 -216.999 182.676 -216.829 205.391C-216.246 253.311 -202.24 294.212 -187.101 333.739C-172.277 372.447 -156.654 410.145 -151.305 453.187C-148.792 473.36 -148.708 493.994 -150.277 515.262C-152.186 541.826 -156.653 569.135 -160.187 597.026C-163.642 625.122 -165.957 653.72 -165.288 678.357" stroke="url(#paint30_linear_1_96)" stroke-width="5" stroke-miterlimit="10"/>
<path opacity="0.2439" d="M456.345 -640.712C387.223 -628.8 305.119 -616.143 224.013 -574.278C177.369 -550.073 130.201 -514.864 90.6082 -474.103C58.5382 -440.919 31.2222 -402.746 12.6933 -360.188C5.59354 -344.083 -0.287515 -327.27 -2.10701 -310.369C-6.75616 -270.543 9.37132 -235.857 27.257 -207.715C32.5678 -199.416 37.9284 -191.605 43.7022 -183.953C55.7702 -167.908 68.8923 -153.442 83.3822 -139.734C88.9915 -134.367 94.9145 -128.181 100.453 -121.143C110.489 -108.548 117.975 -93.332 113.47 -75.4021C108.559 -55.4382 91.6311 -45.1977 75.3579 -39.435C69.2876 -37.345 63.552 -35.618 58.2794 -34.5381C42.0483 -31.14 26.9001 -28.6263 11.8304 -25.9078C-3.52444 -23.3149 -18.6726 -20.8012 -33.949 -18.0035C-72.5676 -11.198 -114.57 -3.33116 -149.355 30.1876C-170.819 50.8546 -187.406 81.1614 -196.916 115.099C-203.138 137.209 -206.587 160.37 -206.132 183.211C-205.185 231.461 -189.833 272.785 -173.141 312.657C-156.97 351.789 -139.587 389.752 -133.305 433.376C-130.221 453.8 -129.773 474.765 -131.057 496.158C-132.681 522.848 -136.785 550.487 -140.447 578.662C-144.109 606.837 -146.552 635.719 -146.424 660.799" stroke="url(#paint31_linear_1_96)" stroke-width="5" stroke-miterlimit="10"/>
<path opacity="0.2195" d="M488.491 -655.136C415.015 -645.314 329.747 -634.733 245.869 -593.92C197.928 -570.627 149.413 -535.842 109.2 -494.843C76.6386 -461.706 49.1944 -423.249 30.8224 -380.281C23.8011 -363.971 18.2835 -346.828 16.5425 -329.722C12.5419 -289.441 30.2228 -254.41 49.662 -225.923C55.4644 -217.578 61.3951 -209.516 67.5821 -202.022C80.6334 -185.884 94.8173 -171.12 110.212 -157.524C116.028 -152.236 122.728 -145.878 128.473 -138.919C139.001 -126.277 146.979 -111.014 142.758 -92.9589C137.925 -72.7902 120.428 -62.801 103.584 -57.2896C97.4357 -55.4044 91.2085 -53.724 85.6508 -52.7697C68.7712 -49.8278 52.7679 -47.6912 36.8429 -45.3497C20.6329 -43.1339 4.62952 -40.9972 -11.502 -38.5765C-52.401 -32.7763 -96.4777 -25.994 -133.151 7.54339C-155.598 28.1173 -172.883 58.4568 -182.807 92.5524C-189.235 114.741 -192.606 138.108 -191.866 161.074C-190.555 209.655 -173.934 251.198 -155.896 291.493C-138.249 330.764 -119.441 369.356 -112.097 413.277C-108.443 433.953 -107.711 455.044 -108.631 476.767C-109.892 503.788 -113.917 531.632 -117.294 559.932C-120.878 588.312 -123.813 617.148 -124.433 642.748" stroke="url(#paint32_linear_1_96)" stroke-width="5" stroke-miterlimit="10"/>
<path opacity="0.1951" d="M523.538 -668.795C445.787 -660.858 357.069 -652.479 270.547 -613.001C221.102 -590.542 171.653 -556.339 130.536 -515.228C97.4825 -482.138 69.9101 -443.396 51.7734 -399.814C44.8305 -383.3 39.3914 -365.952 38.142 -348.799C34.8684 -307.856 53.8962 -272.402 74.8104 -243.776C80.8979 -235.305 87.3203 -227.196 94.0774 -219.451C108.191 -203.015 123.279 -188.363 139.658 -174.673C145.965 -169.339 152.871 -163.06 159.108 -156.055C170.334 -143.446 178.882 -127.932 174.455 -109.797C169.622 -89.6282 151.84 -79.7646 133.935 -74.5512C127.579 -72.5868 121.195 -71.316 115.352 -70.4874C97.6177 -67.9225 80.7592 -66.1628 63.9791 -64.1984C46.914 -62.3596 29.8487 -60.5208 13.0686 -58.5563C-30.0324 -53.5567 -76.3895 -47.7797 -114.823 -14.5076C-138.331 5.76845 -156.236 36.3452 -166.573 70.5991C-173.208 92.8671 -176.501 116.438 -175.682 139.609C-173.723 188.646 -155.834 230.408 -136.527 270.922C-117.534 310.617 -97.1723 349.553 -88.6879 393.977C-84.7488 414.779 -83.4461 436.121 -84.003 458.175C-84.6938 485.446 -88.6407 513.495 -92.2242 541.875C-95.9359 570.539 -99.0774 599.453 -100.317 625.292" stroke="url(#paint33_linear_1_96)" stroke-width="5" stroke-miterlimit="10"/>
<path opacity="0.1707" d="M562.105 -681.921C479.999 -676.074 388.195 -669.565 298.744 -631.549C248.002 -610.002 197.207 -576.223 155.598 -535.159C122.052 -502.115 94.352 -463.09 76.4506 -418.893C69.5861 -402.174 64.432 -384.7 63.3395 -367.138C60.7145 -325.739 81.1676 -289.656 103.635 -260.686C110.214 -252.168 117.128 -244.013 124.171 -236.142C139.267 -219.614 155.339 -204.868 172.701 -191.085C179.5 -185.705 186.82 -179.584 193.341 -172.453C205.344 -159.671 214.099 -144.237 209.75 -125.897C204.996 -105.523 186.643 -95.9114 168.168 -90.9493C161.527 -89.1106 154.858 -87.9655 148.731 -87.2625C130.347 -85.1537 112.634 -83.7712 94.7916 -82.1046C76.8713 -80.6428 58.951 -79.181 41.1091 -77.5144C-4.27231 -73.5202 -52.8315 -68.5438 -93.0247 -35.537C-117.517 -15.354 -136.327 15.3345 -146.87 49.6675C-153.712 72.0147 -157.004 95.586 -155.822 119.087C-153.5 168.455 -134.342 210.435 -113.61 251.578C-93.2696 291.696 -71.4334 330.772 -61.8087 375.699C-57.2996 396.752 -55.6333 418.424 -55.9836 440.399C-56.3893 467.796 -59.9728 496.176 -63.6845 524.839C-67.3961 553.503 -71.0791 582.86 -72.8604 609.14" stroke="url(#paint34_linear_1_96)" stroke-width="5" stroke-miterlimit="10"/>
<path opacity="0.1463" d="M604.063 -694.233C517.682 -690.271 422.429 -685.964 330.413 -649.079C278.245 -628.161 226.231 -595.088 184.002 -553.787C150.044 -520.585 122.136 -481.481 104.392 -436.875C97.6059 -419.95 92.5303 -402.272 91.7229 -384.584C89.8248 -342.524 111.831 -306.097 135.774 -276.987C142.845 -268.422 150.044 -260.142 157.784 -252.303C173.864 -235.682 190.998 -220.638 209.265 -206.967C216.27 -201.666 224.082 -195.498 231.095 -188.321C243.59 -175.493 253.043 -160.091 248.772 -141.546C244.097 -120.968 225.252 -111.402 206.128 -106.896C199.203 -105.183 192.249 -104.164 186.042 -103.666C166.725 -102.139 148.235 -100.928 129.745 -99.718C110.969 -98.6333 92.2721 -97.3437 73.4966 -96.259C25.9131 -93.0653 -25.0049 -89.299 -66.6731 -56.4319C-92.1485 -36.342 -111.657 -5.62093 -122.614 28.8703C-129.662 51.2967 -132.876 75.0728 -131.615 98.7791C-128.93 148.477 -108.425 190.881 -86.2175 232.163C-64.6089 272.5 -41.1408 312.125 -30.3759 357.555C-25.2966 378.859 -23.3453 400.657 -23.3321 422.962C-23.3743 450.69 -26.6727 479.195 -30.5126 508.143C-34.3524 537.09 -38.3204 566.322 -40.6431 593.044" stroke="url(#paint35_linear_1_96)" stroke-width="5" stroke-miterlimit="10"/>
<path opacity="0.122" d="M649.7 -705.603C558.964 -703.731 460.546 -701.5 365.68 -665.872C312.215 -645.866 259.06 -613.297 215.927 -571.884C181.477 -538.728 153.441 -499.34 136.139 -454.198C129.638 -437.148 124.641 -419.265 123.99 -401.167C122.74 -358.652 146.094 -321.801 171.668 -292.142C179.231 -283.53 186.922 -275.203 194.947 -267.239C212.01 -250.525 230.128 -235.388 249.378 -221.624C256.875 -216.276 264.971 -209.983 272.32 -203.169C285.513 -190.373 295.329 -174.64 291.059 -156.096C286.254 -135.234 267.047 -125.999 247.353 -121.744C240.142 -120.157 233.11 -119.342 226.412 -118.89C206.446 -117.82 186.894 -116.907 167.548 -116.074C147.918 -115.366 128.366 -114.453 108.735 -113.746C59.0776 -111.636 5.75082 -108.592 -37.6775 -75.9899C-64.2147 -56.1979 -84.628 -25.3651 -95.7129 9.41014C-102.968 31.9156 -106.103 55.8965 -104.558 79.7284C-101.223 129.883 -79.7354 172.379 -55.9745 214.006C-33.0191 254.767 -7.99747 294.736 3.82924 340.464C9.47859 362.019 11.7934 384.148 12.0917 406.578C12.4129 434.637 9.19294 463.347 5.55972 492.215C1.79832 521.368 -2.58294 550.757 -5.73212 577.796" stroke="url(#paint36_linear_1_96)" stroke-width="5" stroke-miterlimit="10"/>
<path opacity="0.073171" d="M752.18 -726.3C652.608 -728.324 547.862 -730.245 447.501 -697.21C391.107 -678.665 335.593 -647.305 291.142 -605.622C255.993 -572.434 227.417 -532.604 210.506 -486.438C204.162 -468.979 199.322 -450.686 199.526 -432.211C199.652 -388.578 225.984 -350.755 254.302 -320.737C262.642 -311.954 271.316 -303.534 280.325 -295.476C299.226 -278.292 319.517 -263.048 340.862 -249.382C349.058 -244.066 358.059 -237.885 365.977 -230.819C380.36 -218.01 391.16 -202.184 387.046 -183.23C382.321 -162.163 362.051 -153.226 341.139 -149.679C333.564 -148.422 325.962 -147.858 318.694 -147.658C297.225 -147.421 275.962 -147.262 254.906 -147.183C233.565 -147.229 212.096 -146.991 190.833 -146.833C136.694 -146.53 78.8844 -145.291 31.8575 -113.424C3.147 -93.7395 -18.6629 -62.8415 -30.161 -27.908C-37.6224 -5.32343 -41.0145 19.2254 -38.9772 43.1039C-34.7093 93.8398 -10.5276 137.184 15.8486 179.453C41.6259 220.777 69.7544 261.435 83.4483 308.326C89.9528 330.259 93.1227 352.764 93.863 375.73C94.8328 404.245 92.3398 433.616 88.3718 462.847C84.4822 492.283 79.4811 521.91 75.0425 549.913" stroke="url(#paint37_linear_1_96)" stroke-width="5" stroke-miterlimit="10"/>
<path opacity="0.04878" d="M809.468 -735.089C705.541 -739.202 597.502 -742.916 494.419 -711.421C436.521 -693.709 380.074 -662.932 334.718 -621.137C299.078 -587.995 270.373 -547.881 253.698 -501.101C247.432 -483.437 242.955 -464.813 243.238 -446.134C244.091 -401.84 271.77 -363.593 301.848 -333.31C310.679 -324.48 319.717 -315.729 329.217 -307.626C349.102 -290.348 370.376 -275.011 392.704 -261.252C401.392 -255.89 410.806 -249.867 419.01 -242.675C434.169 -229.694 445.461 -213.821 441.141 -194.788C436.493 -173.516 415.654 -164.831 394.171 -161.535C386.312 -160.404 378.424 -159.966 371.078 -159.971C348.753 -160.11 326.842 -160.408 304.724 -160.626C282.4 -160.765 260.204 -161.189 237.88 -161.328C181.459 -162.03 121.448 -161.592 72.8679 -130.07C43.0956 -110.683 20.6659 -79.5477 8.75449 -44.4559C1.16496 -21.5874 -2.22715 2.96145 0.0952508 26.9656C4.80507 78.2368 30.1768 121.595 58.1063 164.208C85.2305 205.956 114.912 246.958 129.668 294.147C136.743 316.331 140.276 339.167 141.302 362.259C142.635 391.104 140.427 420.601 136.331 450.116C132.313 479.836 126.82 509.417 122.047 537.782" stroke="url(#paint38_linear_1_96)" stroke-width="5" stroke-miterlimit="10"/>
<path opacity="0.02439" d="M870.923 -742.89C762.72 -748.889 651.232 -754.804 545.505 -724.645C486.31 -707.846 428.516 -677.492 382.746 -635.539C346.615 -602.443 317.782 -562.045 301.263 -514.856C295.076 -496.987 290.678 -478.158 291.453 -459.433C293.161 -414.762 322.187 -376.091 353.611 -345.384C362.728 -336.429 372.463 -327.711 382.249 -319.481C403.117 -302.11 425.453 -286.476 448.686 -272.828C457.787 -267.625 467.565 -261.271 476.181 -254.238C492.039 -241.289 503.616 -225.291 499.581 -206.132C494.934 -184.86 473.681 -176.016 451.471 -173.381C443.327 -172.376 435.154 -172.064 427.522 -172.194C404.55 -172.79 381.577 -173.385 358.81 -174.06C335.631 -174.576 312.58 -175.377 289.4 -175.893C230.778 -177.396 168.408 -178.168 118.146 -146.706C87.3902 -127.412 64.1837 -96.4491 51.9376 -60.9943C44.1414 -38.0466 40.8277 -13.293 43.2286 10.916C48.3019 62.5177 75.0204 106.299 104.297 149.336C132.896 191.223 164.003 232.854 179.899 280.546C187.544 302.981 191.362 325.943 192.751 349.365C194.448 378.541 192.319 408.242 188.429 437.678C184.411 467.398 178.584 497.342 173.062 526.229" stroke="url(#paint39_linear_1_96)" stroke-width="5" stroke-miterlimit="10"/>
<defs>
<linearGradient id="paint0_linear_1_96" x1="216.634" y1="951.704" x2="88.5338" y2="208.63" gradientUnits="userSpaceOnUse">
<stop stop-color="#F8E6C5"/>
<stop offset="0.553307" stop-color="#B59871"/>
<stop offset="1" stop-color="#FEF2E2"/>
</linearGradient>
<linearGradient id="paint1_linear_1_96" x1="214.366" y1="948.603" x2="85.494" y2="210.516" gradientUnits="userSpaceOnUse">
<stop stop-color="#F8E6C5"/>
<stop offset="0.553307" stop-color="#B59871"/>
<stop offset="1" stop-color="#FEF2E2"/>
</linearGradient>
<linearGradient id="paint2_linear_1_96" x1="210.9" y1="943.057" x2="81.3314" y2="208.297" gradientUnits="userSpaceOnUse">
<stop stop-color="#F8E6C5"/>
<stop offset="0.553307" stop-color="#B59871"/>
<stop offset="1" stop-color="#FEF2E2"/>
</linearGradient>
<linearGradient id="paint3_linear_1_96" x1="205.471" y1="937.473" x2="75.2874" y2="204.381" gradientUnits="userSpaceOnUse">
<stop stop-color="#F8E6C5"/>
<stop offset="0.553307" stop-color="#B59871"/>
<stop offset="1" stop-color="#FEF2E2"/>
</linearGradient>
<linearGradient id="paint4_linear_1_96" x1="199.595" y1="929.327" x2="68.5204" y2="200.779" gradientUnits="userSpaceOnUse">
<stop stop-color="#F8E6C5"/>
<stop offset="0.553307" stop-color="#B59871"/>
<stop offset="1" stop-color="#FEF2E2"/>
</linearGradient>
<linearGradient id="paint5_linear_1_96" x1="193.083" y1="919.988" x2="61.1405" y2="195.858" gradientUnits="userSpaceOnUse">
<stop stop-color="#F8E6C5"/>
<stop offset="0.553307" stop-color="#B59871"/>
<stop offset="1" stop-color="#FEF2E2"/>
</linearGradient>
<linearGradient id="paint6_linear_1_96" x1="185.869" y1="909.247" x2="53.0041" y2="189.41" gradientUnits="userSpaceOnUse">
<stop stop-color="#F8E6C5"/>
<stop offset="0.553307" stop-color="#B59871"/>
<stop offset="1" stop-color="#FEF2E2"/>
</linearGradient>
<linearGradient id="paint7_linear_1_96" x1="177.447" y1="897.796" x2="43.5471" y2="182.259" gradientUnits="userSpaceOnUse">
<stop stop-color="#F8E6C5"/>
<stop offset="0.553307" stop-color="#B59871"/>
<stop offset="1" stop-color="#FEF2E2"/>
</linearGradient>
<linearGradient id="paint8_linear_1_96" x1="169.119" y1="884.457" x2="34.2667" y2="173.362" gradientUnits="userSpaceOnUse">
<stop stop-color="#F8E6C5"/>
<stop offset="0.553307" stop-color="#B59871"/>
<stop offset="1" stop-color="#FEF2E2"/>
</linearGradient>
<linearGradient id="paint9_linear_1_96" x1="160.319" y1="870.332" x2="24.5213" y2="163.554" gradientUnits="userSpaceOnUse">
<stop stop-color="#F8E6C5"/>
<stop offset="0.553307" stop-color="#B59871"/>
<stop offset="1" stop-color="#FEF2E2"/>
</linearGradient>
<linearGradient id="paint10_linear_1_96" x1="150.92" y1="855.681" x2="13.9741" y2="152.963" gradientUnits="userSpaceOnUse">
<stop stop-color="#F8E6C5"/>
<stop offset="0.553307" stop-color="#B59871"/>
<stop offset="1" stop-color="#FEF2E2"/>
</linearGradient>
<linearGradient id="paint11_linear_1_96" x1="141.663" y1="839.2" x2="3.68494" y2="141.089" gradientUnits="userSpaceOnUse">
<stop stop-color="#F8E6C5"/>
<stop offset="0.553307" stop-color="#B59871"/>
<stop offset="1" stop-color="#FEF2E2"/>
</linearGradient>
<linearGradient id="paint12_linear_1_96" x1="132.551" y1="822.141" x2="-6.43678" y2="128.376" gradientUnits="userSpaceOnUse">
<stop stop-color="#F8E6C5"/>
<stop offset="0.553307" stop-color="#B59871"/>
<stop offset="1" stop-color="#FEF2E2"/>
</linearGradient>
<linearGradient id="paint13_linear_1_96" x1="123.694" y1="804.072" x2="-16.2083" y2="114.795" gradientUnits="userSpaceOnUse">
<stop stop-color="#F8E6C5"/>
<stop offset="0.553307" stop-color="#B59871"/>
<stop offset="1" stop-color="#FEF2E2"/>
</linearGradient>
<linearGradient id="paint14_linear_1_96" x1="115.196" y1="785.135" x2="-25.6224" y2="100.221" gradientUnits="userSpaceOnUse">
<stop stop-color="#F8E6C5"/>
<stop offset="0.553307" stop-color="#B59871"/>
<stop offset="1" stop-color="#FEF2E2"/>
</linearGradient>
<linearGradient id="paint15_linear_1_96" x1="107.102" y1="765.809" x2="-34.6068" y2="85.2641" gradientUnits="userSpaceOnUse">
<stop stop-color="#F8E6C5"/>
<stop offset="0.553307" stop-color="#B59871"/>
<stop offset="1" stop-color="#FEF2E2"/>
</linearGradient>
<linearGradient id="paint16_linear_1_96" x1="100.012" y1="745.627" x2="-42.4642" y2="69.4553" gradientUnits="userSpaceOnUse">
<stop stop-color="#F8E6C5"/>
<stop offset="0.553307" stop-color="#B59871"/>
<stop offset="1" stop-color="#FEF2E2"/>
</linearGradient>
<linearGradient id="paint17_linear_1_96" x1="93.6971" y1="724.914" x2="-49.5745" y2="53.1254" gradientUnits="userSpaceOnUse">
<stop stop-color="#F8E6C5"/>
<stop offset="0.553307" stop-color="#B59871"/>
<stop offset="1" stop-color="#FEF2E2"/>
</linearGradient>
<linearGradient id="paint18_linear_1_96" x1="88.434" y1="703.565" x2="-55.5214" y2="36.1598" gradientUnits="userSpaceOnUse">
<stop stop-color="#F8E6C5"/>
<stop offset="0.553307" stop-color="#B59871"/>
<stop offset="1" stop-color="#FEF2E2"/>
</linearGradient>
<linearGradient id="paint19_linear_1_96" x1="84.0515" y1="682.085" x2="-60.6299" y2="18.9388" gradientUnits="userSpaceOnUse">
<stop stop-color="#F8E6C5"/>
<stop offset="0.553307" stop-color="#B59871"/>
<stop offset="1" stop-color="#FEF2E2"/>
</linearGradient>
<linearGradient id="paint20_linear_1_96" x1="81.2607" y1="659.58" x2="-63.988" y2="0.96196" gradientUnits="userSpaceOnUse">
<stop stop-color="#F8E6C5"/>
<stop offset="0.553307" stop-color="#B59871"/>
<stop offset="1" stop-color="#FEF2E2"/>
</linearGradient>
<linearGradient id="paint21_linear_1_96" x1="79.41" y1="636.739" x2="-66.4419" y2="-17.2057" gradientUnits="userSpaceOnUse">
<stop stop-color="#F8E6C5"/>
<stop offset="0.553307" stop-color="#B59871"/>
<stop offset="1" stop-color="#FEF2E2"/>
</linearGradient>
<linearGradient id="paint22_linear_1_96" x1="79.2433" y1="614.35" x2="-67.214" y2="-35.3218" gradientUnits="userSpaceOnUse">
<stop stop-color="#F8E6C5"/>
<stop offset="0.553307" stop-color="#B59871"/>
<stop offset="1" stop-color="#FEF2E2"/>
</linearGradient>
<linearGradient id="paint23_linear_1_96" x1="80.858" y1="591.515" x2="-66.1137" y2="-53.8847" gradientUnits="userSpaceOnUse">
<stop stop-color="#F8E6C5"/>
<stop offset="0.553307" stop-color="#B59871"/>
<stop offset="1" stop-color="#FEF2E2"/>
</linearGradient>
<linearGradient id="paint24_linear_1_96" x1="84.6077" y1="568.148" x2="-62.7485" y2="-72.7115" gradientUnits="userSpaceOnUse">
<stop stop-color="#F8E6C5"/>
<stop offset="0.553307" stop-color="#B59871"/>
<stop offset="1" stop-color="#FEF2E2"/>
</linearGradient>
<linearGradient id="paint25_linear_1_96" x1="90.1361" y1="545.013" x2="-57.6361" y2="-91.4331" gradientUnits="userSpaceOnUse">
<stop stop-color="#F8E6C5"/>
<stop offset="0.553307" stop-color="#B59871"/>
<stop offset="1" stop-color="#FEF2E2"/>
</linearGradient>
<linearGradient id="paint26_linear_1_96" x1="97.6308" y1="521.83" x2="-50.534" y2="-110.2" gradientUnits="userSpaceOnUse">
<stop stop-color="#F8E6C5"/>
<stop offset="0.553307" stop-color="#B59871"/>
<stop offset="1" stop-color="#FEF2E2"/>
</linearGradient>
<linearGradient id="paint27_linear_1_96" x1="107.422" y1="498.692" x2="-41.0803" y2="-128.997" gradientUnits="userSpaceOnUse">
<stop stop-color="#F8E6C5"/>
<stop offset="0.553307" stop-color="#B59871"/>
<stop offset="1" stop-color="#FEF2E2"/>
</linearGradient>
<linearGradient id="paint28_linear_1_96" x1="120.566" y1="477.499" x2="-28.5209" y2="-148.634" gradientUnits="userSpaceOnUse">
<stop stop-color="#F8E6C5"/>
<stop offset="0.553307" stop-color="#B59871"/>
<stop offset="1" stop-color="#FEF2E2"/>
</linearGradient>
<linearGradient id="paint29_linear_1_96" x1="136.059" y1="456.492" x2="-13.6221" y2="-168.557" gradientUnits="userSpaceOnUse">
<stop stop-color="#F8E6C5"/>
<stop offset="0.553307" stop-color="#B59871"/>
<stop offset="1" stop-color="#FEF2E2"/>
</linearGradient>
<linearGradient id="paint30_linear_1_96" x1="154.428" y1="435.954" x2="4.10813" y2="-188.403" gradientUnits="userSpaceOnUse">
<stop stop-color="#F8E6C5"/>
<stop offset="0.553307" stop-color="#B59871"/>
<stop offset="1" stop-color="#FEF2E2"/>
</linearGradient>
<linearGradient id="paint31_linear_1_96" x1="176.215" y1="417.147" x2="25.1461" y2="-207.817" gradientUnits="userSpaceOnUse">
<stop stop-color="#F8E6C5"/>
<stop offset="0.553307" stop-color="#B59871"/>
<stop offset="1" stop-color="#FEF2E2"/>
</linearGradient>
<linearGradient id="paint32_linear_1_96" x1="201.08" y1="397.954" x2="49.3388" y2="-227.165" gradientUnits="userSpaceOnUse">
<stop stop-color="#F8E6C5"/>
<stop offset="0.553307" stop-color="#B59871"/>
<stop offset="1" stop-color="#FEF2E2"/>
</linearGradient>
<linearGradient id="paint33_linear_1_96" x1="228.301" y1="379.259" x2="75.8422" y2="-246.036" gradientUnits="userSpaceOnUse">
<stop stop-color="#F8E6C5"/>
<stop offset="0.553307" stop-color="#B59871"/>
<stop offset="1" stop-color="#FEF2E2"/>
</linearGradient>
<linearGradient id="paint34_linear_1_96" x1="258.982" y1="361.713" x2="105.714" y2="-264.349" gradientUnits="userSpaceOnUse">
<stop stop-color="#F8E6C5"/>
<stop offset="0.553307" stop-color="#B59871"/>
<stop offset="1" stop-color="#FEF2E2"/>
</linearGradient>
<linearGradient id="paint35_linear_1_96" x1="293.88" y1="344.439" x2="139.936" y2="-282.347" gradientUnits="userSpaceOnUse">
<stop stop-color="#F8E6C5"/>
<stop offset="0.553307" stop-color="#B59871"/>
<stop offset="1" stop-color="#FEF2E2"/>
</linearGradient>
<linearGradient id="paint36_linear_1_96" x1="331.785" y1="327.896" x2="177.104" y2="-299.602" gradientUnits="userSpaceOnUse">
<stop stop-color="#F8E6C5"/>
<stop offset="0.553307" stop-color="#B59871"/>
<stop offset="1" stop-color="#FEF2E2"/>
</linearGradient>
<linearGradient id="paint37_linear_1_96" x1="418.673" y1="297.281" x2="262.449" y2="-332.126" gradientUnits="userSpaceOnUse">
<stop stop-color="#F8E6C5"/>
<stop offset="0.553307" stop-color="#B59871"/>
<stop offset="1" stop-color="#FEF2E2"/>
</linearGradient>
<linearGradient id="paint38_linear_1_96" x1="468.545" y1="283.759" x2="311.528" y2="-347.12" gradientUnits="userSpaceOnUse">
<stop stop-color="#F8E6C5"/>
<stop offset="0.553307" stop-color="#B59871"/>
<stop offset="1" stop-color="#FEF2E2"/>
</linearGradient>
<linearGradient id="paint39_linear_1_96" x1="522.439" y1="270.843" x2="364.656" y2="-361.333" gradientUnits="userSpaceOnUse">
<stop stop-color="#F8E6C5"/>
<stop offset="0.553307" stop-color="#B59871"/>
<stop offset="1" stop-color="#FEF2E2"/>
</linearGradient>
</defs>
</svg>
