<svg width="1920" height="2482" viewBox="0 0 1920 2482" fill="none" xmlns="http://www.w3.org/2000/svg">
<g opacity="0.33">
<path d="M2190.41 11.0853C2213.4 35.2788 2215.62 73.5146 2202.66 103.903C2189.73 134.605 2164.4 158.483 2137.77 179.007C2068.9 231.14 1986.93 264.226 1911.88 307.12C1836.82 350.013 1764.44 408.429 1735.77 488.651C1690.98 613.704 1763.3 745.841 1821.36 865.014C1836.49 896.172 1851.14 929.576 1848.33 964.144C1844.97 1008.21 1812.76 1046.53 1773.91 1070.29C1735.06 1094.05 1690.45 1105.71 1646.57 1117.93C1505.39 1157.61 1361.88 1209.76 1259.13 1312.33C1156.37 1414.89 1106.63 1611.95 1147.48 1842.69" stroke="url(#paint0_linear_1_38)" stroke-width="5" stroke-miterlimit="10"/>
<path opacity="0.9756" d="M1147.76 1837.49C1121.77 1703.41 1121.38 1599.9 1157.46 1499.52C1183.12 1427.74 1223.54 1366.68 1267.56 1324.21C1308.11 1284.55 1354.34 1252.29 1403.99 1224.46C1423.34 1213.69 1442.77 1203.86 1462.9 1194.28C1509.98 1172.02 1558.06 1153.46 1606.68 1137.37C1620.8 1132.71 1634.93 1128.05 1649.08 1123.7C1678.68 1114.26 1709 1105.39 1737.27 1092.29C1748.64 1086.92 1759.95 1080.92 1770.51 1074.04C1788.1 1062.47 1804.4 1047.55 1817.47 1030.38C1831.74 1011.53 1842.12 990.496 1844.93 967.896C1845.89 959.311 1845.85 950.811 1844.77 942.083C1842.04 917.749 1831.95 894.352 1821.97 872.206C1811.98 850.06 1801.28 827.345 1790.88 804.29C1764.98 745.698 1741.6 685.003 1736.05 623.428C1732.37 584.055 1736.08 544.057 1750.61 504.401C1760.26 478.702 1773.77 454.88 1790.49 432.992C1825.43 386.883 1873.64 350.043 1922.74 319.741C1972.49 289.07 2025.01 263.204 2075.12 232.817C2098.26 218.888 2120.61 203.766 2141.81 186.852C2168.08 166.045 2193.36 141.541 2206.29 110.839C2219.22 80.1379 2218 41.8168 2195.99 17.2254" stroke="url(#paint1_linear_1_38)" stroke-width="5" stroke-miterlimit="10"/>
<path opacity="0.9512" d="M1146.24 1839.84C1119.35 1709.53 1124.16 1608.8 1162.8 1510.72C1190.32 1440.99 1232.19 1381.06 1277.19 1338.2C1318.43 1298.8 1364.97 1266.19 1414.57 1237.74C1433.56 1226.68 1453.3 1216.51 1472.73 1206.67C1519.06 1183.53 1565.35 1163.86 1611.52 1146.72C1624.95 1141.81 1638.72 1136.86 1652.17 1132.26C1680.71 1122.28 1709.3 1112.93 1736.18 1099.31C1747.21 1093.97 1757.82 1087.72 1767.69 1080.58C1784.25 1068.78 1799.82 1053.29 1813.22 1036.09C1827.81 1016.91 1838.57 996.466 1842.14 974.748C1843.46 966.447 1843.44 958.259 1842.73 949.816C1840.74 926.363 1832.07 903.791 1822.84 882.526C1813.94 861.233 1804.3 839.059 1795.35 817.14C1772.34 760.823 1751.83 702.09 1748.73 641.566C1746.45 602.705 1751.18 562.934 1766.39 523.221C1776.34 497.182 1789.86 473.36 1806.22 451.187C1840.76 404.482 1886.86 366.561 1934.18 335.151C1981.84 303.712 2032.57 276.736 2081.24 245.212C2103.65 230.715 2125.64 215.309 2146.48 198.111C2172.36 176.706 2197.27 151.918 2210.52 120.875C2223.76 89.8326 2222.87 51.4832 2201.87 26.8066" stroke="url(#paint2_linear_1_38)" stroke-width="5" stroke-miterlimit="10"/>
<path opacity="0.9268" d="M1159.75 1845.46C1112.98 1731.95 1128.16 1620.11 1169.72 1524.62C1199.44 1456.91 1242.39 1397.84 1288.42 1355.2C1330.36 1316.06 1377.22 1283.11 1426.4 1253.75C1445.36 1242.38 1465.07 1231.89 1484.12 1221.46C1529.67 1197.12 1574.18 1176.35 1618.23 1158.13C1631.3 1152.92 1644.03 1147.75 1657.1 1142.55C1684.24 1132.06 1711.41 1121.88 1736.58 1108.1C1746.92 1102.5 1756.86 1096.3 1766.7 1088.85C1782.56 1076.8 1797.44 1061.05 1810.48 1043.57C1825.07 1024.38 1836.53 1004.2 1840.81 983.049C1842.5 975.032 1842.82 966.817 1842.49 958.97C1841.25 936.399 1833.67 914.679 1825.83 893.926C1818 873.174 1809.46 852.165 1801.57 830.786C1781.1 776.459 1763.84 720.285 1763.17 660.501C1762.62 622.123 1768.38 582.58 1783.93 542.838C1793.88 516.799 1807.71 492.636 1824.04 470.15C1858.19 422.847 1902.53 384.131 1948.07 351.612C1993.94 319.064 2042.56 291.008 2090.11 258.319C2111.8 243.253 2133.41 227.249 2154.22 209.739C2179.71 187.737 2204.26 162.665 2217.48 131.309C2230.7 99.9538 2230.51 61.8603 2210.82 36.7573" stroke="url(#paint3_linear_1_38)" stroke-width="5" stroke-miterlimit="10"/>
<path opacity="0.9024" d="M1155.09 1850.26C1113.75 1741.01 1133.04 1633.87 1177.85 1540.94C1209.44 1475.27 1253.81 1417.03 1300.88 1374.61C1343.51 1335.73 1390.68 1302.44 1439.78 1272.14C1458.71 1260.46 1478.04 1249.37 1497.08 1238.94C1541.89 1213.72 1584.25 1191.55 1626.54 1172.54C1638.89 1166.77 1651.29 1161.62 1663.32 1156.19C1689.07 1145.19 1714.84 1134.5 1738.62 1120.21C1748.26 1114.35 1757.84 1107.87 1767.01 1100.48C1781.82 1087.89 1796.02 1072.19 1809.37 1054.37C1823.93 1034.87 1836.11 1015.26 1841.12 994.674C1843.17 986.942 1843.85 979.01 1843.55 971.477C1843.4 949.758 1836.9 928.892 1830.15 908.992C1823.4 889.092 1816.28 868.907 1809.14 848.41C1791.56 796.358 1777.51 742.116 1778.95 683.413C1779.82 645.859 1786.63 606.544 1802.81 566.433C1813.1 540.365 1827.24 515.86 1842.9 493.432C1876.3 445.248 1918.88 405.735 1962.67 372.42C2006.76 338.764 2053.26 309.628 2099.39 276.113C2120.36 260.479 2141.6 244.191 2162.02 226.083C2187.15 203.797 2211.65 178.1 2224.84 146.432C2238.39 115.048 2238.51 76.6131 2219.81 51.1122" stroke="url(#paint4_linear_1_38)" stroke-width="5" stroke-miterlimit="10"/>
<path opacity="0.878" d="M1151.29 1857.2C1115.4 1752.53 1139.14 1650.04 1186.82 1559.08C1220.58 1495.12 1266.06 1438.04 1313.8 1395.57C1357.13 1356.93 1404.6 1323.31 1453.65 1292.38C1472.56 1280.38 1491.86 1268.99 1510.18 1257.99C1554.21 1231.58 1594.79 1208.3 1634.63 1188.23C1646.27 1182.2 1657.95 1176.49 1669.65 1171.09C1694 1159.58 1718.36 1148.07 1740.77 1133.57C1750.07 1127.74 1758.95 1121 1767.42 1113.36C1781.53 1100.51 1795.01 1084.25 1808.03 1066.45C1822.56 1046.64 1835.47 1027.59 1841.23 1007.89C1843.3 1000.47 1844.34 992.827 1844.74 985.549C1845.34 964.712 1840.26 944.67 1834.26 925.651C1828.6 906.604 1822.57 887.273 1816.85 867.6C1802.13 817.509 1791 765.855 1794.54 707.919C1796.8 670.877 1804.97 631.761 1821.16 591.65C1831.78 565.553 1845.92 541.049 1861.53 517.995C1894.54 469.214 1935.34 428.593 1977.01 394.197C2019.7 360.029 2064.42 329.784 2109.11 295.133C2129.71 279.214 2150.23 262.357 2170.26 243.653C2195 220.77 2219.14 194.788 2232.67 163.091C2246.19 131.395 2247.01 93.2159 2229.62 67.2886" stroke="url(#paint5_linear_1_38)" stroke-width="5" stroke-miterlimit="10"/>
<path opacity="0.8537" d="M1148.03 1866.61C1117.6 1766.51 1145.43 1668.41 1196.36 1580C1231.98 1518.09 1278.91 1462.14 1327.65 1419.59C1371.68 1381.21 1419.44 1346.93 1468.43 1315.38C1487.32 1303.07 1506.25 1291.39 1524.52 1279.76C1567.8 1252.47 1606.6 1228.09 1644.32 1206.94C1655.27 1200.66 1666.58 1194.66 1677.25 1189.03C1700.18 1176.69 1723.17 1164.98 1744.21 1150.29C1752.81 1144.2 1761.03 1137.52 1769.14 1129.59C1782.21 1116.51 1795 1100 1808.32 1081.86C1822.83 1061.74 1836.46 1043.26 1842.94 1024.13C1845.35 1016.68 1846.78 1009.63 1847.2 1002.66C1848.89 982.679 1844.56 963.519 1839.98 945.325C1835.4 927.13 1830.46 908.652 1825.82 889.832C1814 842.016 1805.74 792.323 1811.73 735.439C1815.75 699.194 1824.59 660.02 1841.45 619.852C1852.41 593.728 1866.52 568.911 1881.76 545.572C1914.39 496.195 1953.43 454.777 1993.32 419.273C2033.53 383.74 2076.13 352.414 2119.37 316.626C2139.25 300.139 2159.39 282.685 2179.05 263.696C2203.41 240.216 2227.18 213.95 2241.02 181.912C2254.85 149.875 2256.34 111.639 2239.62 85.6548" stroke="url(#paint6_linear_1_38)" stroke-width="5" stroke-miterlimit="10"/>
<path opacity="0.8293" d="M1145.92 1877.5C1120.91 1781.67 1152.87 1688.57 1207.04 1602.4C1244.52 1542.54 1292.54 1487.45 1342.62 1444.78C1387.35 1406.66 1435.41 1372.04 1484.35 1339.86C1503.21 1327.24 1522.12 1315.24 1540.02 1303.33C1582.53 1274.85 1619.21 1249.38 1655.15 1227.12C1665.73 1220.56 1676.01 1214.33 1686.32 1208.42C1707.86 1195.57 1729.45 1183.35 1749.1 1168.14C1757.01 1161.8 1764.89 1155.15 1772.3 1146.96C1784.68 1133.63 1796.74 1116.54 1810.06 1098.41C1824.57 1078.28 1838.87 1059.75 1846.1 1041.5C1848.87 1034.33 1850.66 1027.57 1851.45 1020.89C1853.88 1001.78 1850.98 983.447 1847.48 966.106C1843.99 948.765 1840.13 931.139 1836.58 913.173C1827.63 867.318 1822.26 819.899 1830.7 764.067C1836.12 728.334 1846.33 689.359 1863.52 649.163C1874.81 623.01 1888.9 597.88 1904.12 574.229C1935.99 523.97 1973.28 481.756 2011.41 445.456C2049.51 408.843 2090.33 376.409 2132.11 339.483C2151.27 322.427 2171.04 304.689 2190.35 285.416C2214.31 261.339 2237.7 234.476 2251.54 202.438C2265.37 170.4 2267.51 131.795 2252.1 105.385" stroke="url(#paint7_linear_1_38)" stroke-width="5" stroke-miterlimit="10"/>
<path opacity="0.8049" d="M1143.65 1890.6C1124.1 1799.35 1160.48 1710.6 1217.54 1626.71C1256.88 1568.89 1306.32 1514.62 1357.44 1472.18C1403.22 1434.6 1451.59 1399.64 1500.12 1366.55C1518.98 1353.93 1537.5 1341.34 1555.35 1328.8C1597.1 1299.44 1631.98 1272.55 1665.82 1249.52C1675.71 1242.7 1685.63 1236.19 1695.22 1229.71C1715.36 1216.35 1735.53 1203.3 1753.81 1187.9C1761.38 1181.58 1768.54 1174.36 1775.28 1166.23C1786.63 1152.67 1797.99 1135.33 1811.29 1116.88C1826.1 1096.42 1840.79 1078.48 1848.78 1061.11C1851.91 1054.23 1853.73 1047.78 1854.87 1041.38C1858.39 1023.13 1856.24 1005.68 1853.83 989.189C1851.42 972.7 1848.98 955.899 1846.52 938.785C1840.46 895.205 1837.99 850.061 1848.52 794.997C1855.36 760.087 1866.57 721.028 1884.44 680.775C1896.06 654.593 1910.12 629.151 1924.98 605.215C1956.47 554.359 1991.97 511.037 2027.98 473.656C2064.3 435.934 2103.02 402.732 2143.37 364.669C2162.13 347.016 2181.18 328.71 2200.13 309.152C2223.73 284.791 2247.07 257.302 2260.9 225.265C2275.04 192.886 2277.54 154.565 2263.11 127.757" stroke="url(#paint8_linear_1_38)" stroke-width="5" stroke-miterlimit="10"/>
<path opacity="0.7805" d="M1142.19 1905.22C1128.06 1818.22 1168.58 1734.48 1228.87 1652.84C1270.08 1597.06 1320.94 1543.62 1373.08 1501.41C1419.2 1463.8 1467.88 1428.5 1516.34 1394.47C1535.17 1381.54 1553.66 1368.63 1570.81 1355.84C1611.79 1325.28 1644.9 1297.59 1676.3 1273.52C1685.49 1266.44 1694.71 1259.67 1703.6 1252.94C1722.69 1239.04 1741.13 1225.51 1757.68 1209.62C1764.55 1203.05 1771.04 1195.89 1777.42 1187.47C1788.04 1173.34 1798.73 1156.06 1812 1137.3C1826.79 1116.52 1842.21 1099.15 1850.91 1082.35C1854.41 1075.75 1856.59 1069.58 1858.1 1063.47C1862.37 1046.1 1861.63 1029.47 1860.31 1013.84C1858.98 998.202 1857.63 982.253 1856.25 965.992C1853.09 924.686 1853.49 881.504 1866.47 827.492C1874.7 793.094 1886.97 754.575 1905.48 713.952C1917.45 687.742 1931.48 661.987 1945.97 637.767C1976.74 586.343 2010.49 542.224 2045.05 503.706C2079.61 465.188 2115.86 430.622 2155.09 391.393C2173.16 373.485 2191.82 354.581 2210.37 334.426C2233.25 309.496 2256.56 281.695 2270.71 249.316C2284.82 216.625 2287.99 178.247 2274.9 151.325" stroke="url(#paint9_linear_1_38)" stroke-width="5" stroke-miterlimit="10"/>
<path opacity="0.7561" d="M1140.52 1921.42C1131.85 1839.01 1176.46 1759.64 1240 1680.55C1283.07 1626.83 1335.35 1574.21 1388.5 1531.91C1435.32 1494.56 1484.65 1458.89 1532.71 1424.26C1551.51 1411.02 1569.98 1397.8 1586.74 1384.41C1626.97 1352.97 1657.94 1323.89 1687.55 1298.7C1696.39 1291.34 1704.91 1284.32 1713.1 1277.33C1730.76 1262.6 1747.84 1248.87 1762.99 1232.47C1769.2 1225.96 1775.32 1218.51 1781.34 1209.81C1791.26 1195.43 1800.9 1177.61 1814.5 1158.82C1829.29 1138.04 1845.4 1120.92 1854.84 1104.69C1858.36 1098.41 1860.9 1092.53 1862.77 1086.7C1868.12 1070.18 1868.14 1054.43 1868.23 1039.62C1868 1024.84 1867.7 1009.43 1867.41 994.022C1867.12 954.678 1870.43 914.083 1885.84 860.81C1895.5 827.237 1909.11 788.604 1927.95 747.953C1940.23 721.402 1954.25 695.647 1968.72 671.114C1999.08 618.78 2031.07 573.865 2063.54 534.58C2095.98 494.981 2130.45 459.306 2168.25 419.253C2185.6 400.775 2203.9 381.588 2222.07 360.836C2244.56 335.309 2267.51 307.223 2281.96 274.503C2296.41 241.784 2300.25 203.349 2287.78 175.745" stroke="url(#paint10_linear_1_38)" stroke-width="5" stroke-miterlimit="10"/>
<path opacity="0.7317" d="M1138.62 1938.9C1135.38 1860.75 1184.13 1786.39 1250.9 1709.55C1295.8 1657.56 1349.53 1606.08 1403.38 1564.03C1450.9 1526.94 1500.53 1490.92 1548.51 1455.36C1566.95 1441.83 1585.37 1427.99 1602.11 1414.29C1641.58 1381.97 1670.75 1351.46 1698.27 1325.51C1706.4 1317.89 1714.23 1310.62 1722.05 1303.34C1738.33 1288.1 1753.98 1273.55 1767.77 1256.95C1773.27 1250.18 1779.06 1242.76 1784.38 1233.81C1793.28 1219.2 1802.55 1201.09 1815.79 1182.01C1830.55 1160.92 1847.39 1144.38 1857.91 1129C1861.79 1123 1864.69 1117.4 1866.92 1111.86C1873.03 1096.22 1874.47 1081.3 1875.31 1067.37C1876.16 1053.44 1876.95 1038.88 1878.08 1024.3C1880.35 987.256 1886.86 948.594 1904.73 896.373C1916.11 863.284 1930.42 824.907 1949.94 784.199C1962.54 757.619 1976.55 731.551 1990.65 706.735C2020.62 653.803 2050.85 608.093 2081.18 567.414C2111.84 526.707 2144.21 490.264 2180.55 448.761C2197.51 429.686 2215.08 409.93 2232.91 389.207C2255.02 363.083 2277.94 334.684 2292.37 301.652C2306.48 268.96 2310.99 230.469 2299.86 202.751" stroke="url(#paint11_linear_1_38)" stroke-width="5" stroke-miterlimit="10"/>
<path opacity="0.7073" d="M1136.16 1957.69C1138.37 1884.12 1191.21 1814.13 1261.21 1739.54C1307.97 1689.6 1362.81 1639.28 1417.98 1596.81C1466.19 1559.97 1516.13 1523.62 1564.06 1487.43C1582.48 1473.59 1600.87 1459.43 1616.91 1445.48C1655.61 1411.96 1682.65 1380.38 1708.39 1353.32C1715.83 1345.44 1723.27 1337.57 1730.09 1330.38C1744.96 1314.63 1759.22 1299.56 1771.62 1282.45C1776.76 1275.4 1781.85 1267.72 1786.53 1259.14C1794.73 1244.27 1802.97 1225.94 1816.52 1206.52C1831.25 1185.11 1848.81 1169.14 1860.05 1154.33C1864.3 1148.61 1867.56 1143.3 1869.82 1138.07C1877.01 1123.29 1879.2 1109.24 1881.46 1096.14C1883.73 1083.03 1885.27 1069.36 1887.49 1055.63C1892.62 1020.55 1902.06 984.473 1922.02 933.02C1934.82 900.755 1950.47 862.264 1969.99 821.556C1982.93 794.948 1996.93 768.88 2010.99 743.438C2040.23 689.938 2068.68 643.119 2097.58 601.615C2126.49 560.112 2156.72 522.276 2191.97 479.92C2208.2 460.277 2225.42 440.237 2242.86 418.917C2264.6 392.508 2287.14 363.513 2301.56 330.48C2316.27 296.794 2321.47 258.558 2311.32 230.442" stroke="url(#paint12_linear_1_38)" stroke-width="5" stroke-miterlimit="10"/>
<path opacity="0.6829" d="M1133.11 1977.48C1140.75 1908.17 1197.39 1843.22 1270.96 1770.84C1319.58 1722.94 1375.84 1673.45 1432.04 1631.21C1480.95 1594.63 1531.2 1557.93 1579.05 1520.81C1597.44 1506.65 1615.46 1492.21 1631.45 1477.63C1669.4 1443.23 1694.66 1410.54 1717.95 1382.43C1724.69 1374.3 1731.43 1366.17 1737.86 1358.38C1751.35 1342.12 1764.21 1326.54 1775.21 1308.91C1779.69 1301.92 1784.08 1293.99 1788.39 1285.12C1795.53 1269.71 1803.41 1251.09 1816.63 1231.71C1831.36 1210.3 1849.62 1194.58 1861.58 1180.34C1866.19 1174.91 1869.48 1169.91 1872.43 1164.93C1880.38 1151.03 1883.98 1137.81 1887.34 1125.56C1890.69 1113.31 1893.65 1100.46 1896.62 1087.61C1904.64 1054.8 1916.95 1020.69 1939.39 970.602C1953.58 938.849 1970.29 900.898 1990.45 859.821C2003.73 833.184 2017.71 806.804 2031.4 781.077C2060.22 726.668 2086.95 679.365 2113.74 636.781C2140.52 594.197 2168.97 555.253 2202.8 512.072C2218.31 491.861 2235.14 471.223 2252.22 449.619C2273.57 422.613 2295.74 393.334 2310.48 359.96C2325.21 326.586 2330.72 288.01 2321.89 259.467" stroke="url(#paint13_linear_1_38)" stroke-width="5" stroke-miterlimit="10"/>
<path opacity="0.6585" d="M1128.82 1998.63C1141.91 1933.9 1202.64 1873.32 1279.46 1803.51C1329.62 1757.68 1387.63 1708.99 1444.86 1666.98C1494.44 1630.33 1545.03 1593.61 1592.46 1555.57C1610.83 1541.11 1628.83 1526.35 1644.43 1511.17C1681.6 1475.58 1705.08 1441.78 1726.27 1412.9C1732.65 1404.49 1738.7 1396.1 1744.43 1388.06C1756.52 1371.28 1767.96 1354.88 1777.6 1337.06C1781.37 1329.81 1785.43 1321.91 1789.05 1312.78C1795.49 1297.12 1802.34 1278.27 1815.86 1258.54C1830.9 1236.8 1849.55 1221.67 1862.26 1208.31C1867.23 1203.17 1870.88 1198.45 1873.87 1193.79C1882.89 1180.74 1887.59 1168.37 1891.69 1157C1896.1 1145.29 1900.18 1133.61 1904.56 1121.58C1915.46 1090.74 1930.66 1058.9 1955.55 1009.86C1971.16 978.933 1988.88 940.897 2009.71 899.763C2023.32 873.098 2037.27 846.405 2050.94 820.365C2079.04 765.387 2103.98 716.976 2128.99 673.283C2154.02 629.903 2180.35 589.878 2212.7 545.248C2227.52 524.78 2243.95 503.546 2260.65 481.344C2281.61 453.742 2303.42 424.178 2318.47 390.463C2333.51 356.748 2339.38 318.456 2331.53 289.516" stroke="url(#paint14_linear_1_38)" stroke-width="5" stroke-miterlimit="10"/>
<path opacity="0.6341" d="M1123.56 2020.18C1142.41 1959.68 1206.6 1904.17 1286.63 1836.28C1338.62 1792.19 1398.08 1744.64 1456.32 1702.54C1506.6 1666.15 1557.49 1629.09 1604.87 1590.43C1623.21 1575.65 1640.85 1560.61 1656.42 1545.12C1692.51 1508.67 1714.18 1473.45 1733.59 1443.46C1739.27 1434.79 1744.62 1426.15 1749.66 1417.85C1760.32 1400.25 1770.4 1383.65 1778.64 1365.32C1782.08 1358.09 1785.44 1349.94 1788.36 1340.55C1793.77 1324.66 1800.23 1305.22 1813.75 1285.49C1828.77 1263.43 1848.14 1248.88 1861.58 1236.09C1866.57 1231.25 1870.89 1226.48 1874.26 1222.41C1884.04 1210.25 1889.82 1198.73 1895.34 1188.19C1900.84 1177.33 1906 1166.5 1911.47 1155.32C1925.26 1126.76 1943.36 1097.19 1970.67 1048.89C1987.68 1018.48 2006.77 980.64 2027.93 939.477C2041.55 912.812 2056.14 885.75 2069.11 859.454C2096.44 803.282 2119.62 754.075 2142.87 709.586C2165.78 665.126 2190.33 623.992 2221.26 578.537C2235.69 557.473 2251.43 535.982 2268.07 513.155C2288.67 485.268 2310.43 455.079 2325.47 421.364C2340.49 387.337 2347.37 348.959 2340.52 319.934" stroke="url(#paint15_linear_1_38)" stroke-width="5" stroke-miterlimit="10"/>
<path opacity="0.6098" d="M1117 2042.46C1141.31 1986.55 1209.59 1935.41 1292.87 1870.09C1346.72 1828.04 1407.27 1781.34 1466.87 1739.44C1517.85 1703.31 1569.05 1665.9 1616.36 1626.31C1634.66 1611.21 1652.28 1595.86 1667.13 1579.8C1702.44 1542.16 1722.32 1505.83 1739.64 1475.08C1744.6 1465.84 1749.61 1457.22 1753.96 1448.67C1763.56 1430.53 1771.91 1413.45 1778.42 1394.63C1781.16 1387.15 1783.83 1378.74 1786.75 1369.35C1791.46 1353.21 1796.88 1333.54 1810.38 1313.49C1825.38 1291.12 1845.13 1277.17 1859.63 1264.91C1864.98 1260.37 1869.33 1255.9 1873.07 1252.12C1883.93 1240.81 1890.79 1230.15 1897.37 1220.14C1903.96 1210.14 1910.2 1200.16 1917.09 1189.81C1933.78 1163.51 1954.74 1135.91 1984.18 1088.7C2002.61 1059.1 2022.7 1021.18 2044.54 979.961C2058.48 953.268 2073.05 925.893 2085.66 899.313C2112.96 842.828 2134.39 792.824 2155.52 747.256C2176.65 701.687 2199.08 659.472 2228.56 612.88C2242.26 591.247 2257.62 569.16 2273.92 546.361C2294.14 517.877 2315.53 487.404 2330.55 453.376C2345.9 419.32 2353.09 380.602 2347.22 351.178" stroke="url(#paint16_linear_1_38)" stroke-width="5" stroke-miterlimit="10"/>
<path opacity="0.5854" d="M1108.46 2065.23C1138.22 2013.9 1210.25 1967.16 1297.13 1904.37C1352.51 1864.4 1414.81 1818.5 1475.09 1776.54C1526.76 1740.67 1578.27 1702.92 1625.52 1662.69C1643.8 1647.29 1661.39 1631.62 1675.88 1615.28C1710.44 1576.76 1728.54 1539.32 1743.38 1507.2C1747.64 1497.7 1751.96 1488.83 1755.94 1479.99C1764.15 1461.35 1771.08 1443.44 1776.22 1424.42C1778.27 1416.69 1780.59 1408.3 1782.82 1398.66C1786.47 1381.98 1791.56 1362.33 1805.03 1341.98C1820.02 1319.61 1840.48 1305.91 1855.7 1294.22C1861.41 1289.96 1866.13 1285.78 1870.22 1282.28C1881.83 1271.85 1889.78 1262.04 1897.45 1252.89C1905.12 1243.74 1912.78 1234.58 1920.4 1224.8C1939.95 1200.47 1963.84 1175.46 1995.7 1128.98C2015.52 1099.9 2036.98 1062.17 2059.15 1020.93C2073.41 993.892 2087.98 966.517 2100.56 939.625C2127.13 882.571 2146.78 831.458 2166.46 784.752C2185.84 738.387 2206.12 694.78 2234.19 647.363C2247.19 625.475 2262.16 602.79 2278.1 579.707C2297.59 550.655 2318.96 519.868 2334.29 485.5C2349.61 451.131 2357.5 412.668 2352.94 382.819" stroke="url(#paint17_linear_1_38)" stroke-width="5" stroke-miterlimit="10"/>
<path opacity="0.561" d="M1098.61 2088.43C1133.8 2041.36 1209.6 1999.34 1300.04 1938.77C1357.26 1900.54 1421.01 1855.77 1482.31 1814.04C1534.68 1778.42 1586.5 1740.33 1633.68 1699.17C1651.93 1683.45 1669.13 1667.19 1683.59 1650.53C1717.37 1610.82 1733.36 1572.3 1746.45 1539.38C1750.34 1529.6 1753.6 1520.19 1756.88 1511.09C1763.7 1491.93 1769.23 1473.51 1773.01 1454.3C1774.72 1446.59 1776.35 1437.95 1777.88 1428.06C1780.5 1411.14 1784.86 1390.93 1798.67 1370.55C1813.64 1347.86 1834.81 1334.73 1850.78 1323.93C1856.86 1319.95 1861.6 1316.08 1866.06 1312.87C1878.75 1303.29 1887.79 1294.34 1896.54 1286.04C1905.3 1277.74 1914.02 1269.12 1922.75 1260.51C1945.2 1238.45 1971.95 1215.4 2006.26 1169.97C2027.84 1141.69 2050 1104.22 2072.48 1062.63C2087.07 1035.57 2101.61 1007.88 2113.83 980.703C2140.02 923.053 2157.91 871.144 2175.48 823.358C2192.73 775.912 2211.26 731.509 2237.85 682.642C2250.47 660.156 2264.71 636.903 2280.26 613.223C2299.73 583.858 2320.71 552.475 2336.04 518.106C2351.67 483.397 2359.89 444.905 2356.34 414.971" stroke="url(#paint18_linear_1_38)" stroke-width="5" stroke-miterlimit="10"/>
<path opacity="0.5366" d="M1086.74 2111.8C1127.38 2069.3 1206.94 2031.7 1300.97 1973.65C1359.71 1937.49 1425.22 1893.52 1487.56 1852.02C1540.62 1816.66 1592.76 1778.22 1639.51 1736.15C1657.41 1720.15 1674.91 1703.55 1688.65 1686.32C1721.68 1645.73 1735.86 1605.79 1746.83 1571.79C1750.03 1561.75 1752.92 1552.06 1755.51 1542.71C1760.93 1523.04 1765.07 1504.1 1767.45 1484.37C1768.47 1476.41 1769.4 1467.52 1770.59 1457.65C1772.51 1440.48 1776.18 1420.01 1789.63 1399.35C1804.9 1376.32 1826.47 1363.78 1843.16 1353.55C1849.27 1349.88 1854.7 1346.27 1859.52 1343.35C1873.3 1334.62 1883.42 1326.52 1893.26 1319.07C1903.1 1311.62 1912.91 1303.86 1923.06 1296.07C1948.04 1276.01 1978.05 1255.51 2014.79 1210.82C2037.77 1183.05 2061.29 1145.78 2084.1 1104.17C2099.03 1077.07 2113.57 1049.39 2125.74 1021.58C2151.51 963.024 2167.65 910.32 2183.12 861.765C2198.62 813.524 2214.67 767.756 2240.18 718.036C2252.07 694.982 2265.95 671.444 2281.11 647.168C2299.85 617.234 2320.81 585.538 2336.44 550.828C2352.08 516.118 2360.97 477.57 2358.71 446.896" stroke="url(#paint19_linear_1_38)" stroke-width="5" stroke-miterlimit="10"/>
<path opacity="0.5122" d="M1072.86 2135.34C1118.93 2097.1 1202.6 2064.19 1299.89 2008.7C1360.13 1974.31 1427.11 1931.78 1490.76 1889.85C1544.53 1854.75 1596.97 1815.98 1643.67 1773.28C1661.54 1756.96 1678.68 1740.08 1692.39 1722.54C1724.65 1680.75 1737.04 1639.7 1745.58 1604.96C1748.09 1594.67 1750.29 1584.72 1752.51 1575.08C1756.51 1554.59 1759.28 1535.46 1760.27 1515.22C1760.61 1507.31 1761.19 1498.13 1761.68 1488.01C1762.54 1470.3 1765.52 1449.58 1779.3 1428.88C1794.57 1405.85 1816.83 1393.58 1834.25 1383.91C1840.72 1380.53 1846.52 1377.2 1851.36 1374.59C1865.89 1366.74 1877.1 1359.49 1888.02 1352.9C1898.95 1346.3 1909.84 1339.4 1921.08 1332.46C1948.95 1314.67 1981.83 1296.13 2020.69 1252.53C2045.06 1225.27 2069.61 1188.22 2093.1 1146.55C2108.36 1119.43 2122.88 1091.43 2134.68 1063.34C2159.73 1004.22 2174.11 950.714 2188.11 900.71C2201.83 851.36 2215.76 804.511 2239.81 753.655C2250.98 730.032 2264.5 706.21 2279.31 681.649C2297.66 651.118 2318.25 619.138 2333.86 584.115C2349.47 549.093 2359.36 510.46 2357.77 479.729" stroke="url(#paint20_linear_1_38)" stroke-width="5" stroke-miterlimit="10"/>
<path opacity="0.4878" d="M1056.61 2158.76C1108.13 2125.1 1195.55 2096.6 1296.43 2043.64C1358.51 2010.98 1426.94 1969.59 1491.62 1927.89C1546.06 1892.73 1598.83 1853.93 1645.45 1810.29C1663.29 1793.66 1680.41 1776.47 1693.73 1758.33C1725.24 1715.66 1735.52 1673.53 1742.28 1637.68C1744.08 1627.14 1745.92 1616.9 1747.11 1607.04C1749.72 1586.03 1751.07 1566.07 1750.69 1545.63C1750.67 1537.45 1750.57 1528.32 1750.37 1517.95C1750.53 1499.98 1752.47 1479.03 1766.23 1458.02C1781.48 1434.68 1804.46 1422.97 1822.63 1414.19C1829.46 1411.09 1835.28 1408.08 1840.49 1405.74C1856.11 1398.75 1868.4 1392.36 1880.41 1386.62C1892.75 1380.84 1904.74 1374.79 1916.72 1368.74C1947.46 1352.9 1983.23 1336.64 2024.54 1294.09C2050.34 1267.65 2075.9 1230.53 2100.05 1188.8C2115.65 1161.65 2130.14 1133.33 2141.92 1104.94C2166.55 1044.9 2179.17 990.601 2191.08 939.829C2202.68 889.398 2214.83 841.441 2237.8 789.731C2248.25 765.54 2261.38 741.121 2275.82 716.275C2293.79 685.148 2314.02 652.883 2329.93 617.519C2345.85 582.156 2356.11 543.807 2355.83 512.65" stroke="url(#paint21_linear_1_38)" stroke-width="5" stroke-miterlimit="10"/>
<path opacity="0.4634" d="M1037.96 2181.76C1094.91 2152.37 1186.1 2128.58 1290.55 2077.84C1354.12 2046.94 1424.33 2006.66 1489.69 1964.9C1544.82 1930 1597.91 1890.86 1644.48 1846.6C1662.29 1829.65 1679.05 1812.17 1692.34 1793.72C1723.07 1749.86 1731.57 1706.62 1736.21 1669.69C1737.65 1658.86 1738.46 1648.4 1739.29 1638.25C1740.5 1616.73 1740.46 1596.26 1738.68 1575.31C1737.99 1567.18 1737.17 1557.49 1736.63 1547.14C1735.77 1528.95 1737.34 1507.71 1751.07 1486.39C1766.29 1462.74 1789.98 1451.28 1809.23 1443.35C1816.39 1440.23 1822.61 1437.81 1828.17 1435.76C1844.54 1429.65 1857.92 1424.11 1871.35 1419.19C1884.78 1414.28 1897.85 1409.07 1911.25 1403.84C1944.89 1390.29 1983.55 1376.3 2027.29 1334.49C2054.48 1308.56 2081.43 1271.95 2105.9 1229.88C2121.83 1202.7 2136.29 1174.07 2147.71 1145.39C2171.62 1084.78 2182.82 1029.66 2192.61 977.809C2202.46 926.582 2212.49 877.544 2233.99 824.385C2244.04 799.596 2256.48 774.921 2270.53 749.479C2288.11 717.754 2308.28 684.864 2324.23 649.813C2340.14 614.45 2351.05 575.731 2351.75 544.176" stroke="url(#paint22_linear_1_38)" stroke-width="5" stroke-miterlimit="10"/>
<path opacity="0.439" d="M1016.93 2204.64C1079.33 2179.83 1174.25 2160.13 1282.32 2112.24C1347.42 2083.41 1419.05 2043.96 1485.78 2002.4C1541.6 1967.75 1595 1928.27 1641.49 1883.07C1659.28 1865.81 1676.01 1848.02 1688.58 1829C1718.56 1784.26 1724.91 1739.62 1727.79 1701.9C1728.54 1690.81 1728.98 1680.07 1729.09 1669.35C1729.24 1647.29 1727.47 1626.34 1723.96 1604.9C1722.58 1596.52 1721.42 1586.85 1720.52 1576.22C1718.93 1557.46 1719.48 1535.99 1733.54 1514.65C1748.76 1490.99 1773.14 1479.8 1793.12 1472.43C1800.31 1469.62 1807.22 1467.46 1812.81 1465.73C1830.27 1460.47 1844.73 1455.78 1858.91 1451.74C1873.43 1447.68 1887.58 1443.33 1902.07 1438.95C1938.6 1427.67 1979.8 1415.67 2026.32 1374.88C2054.93 1349.78 2082.89 1313.08 2108.03 1270.95C2124.3 1243.75 2138.73 1214.81 2149.79 1185.84C2173.31 1124.64 2182.39 1068.44 2190.74 1015.45C2198.8 963.111 2206.71 912.993 2226.79 859.009C2236.15 833.964 2248.17 808.38 2261.86 782.653C2279.07 750.644 2298.86 717.157 2315.11 681.765C2331.34 646.06 2342.61 607.626 2344.62 575.645" stroke="url(#paint23_linear_1_38)" stroke-width="5" stroke-miterlimit="10"/>
<path opacity="0.4146" d="M993.142 2226.81C1060.97 2206.26 1159.67 2191.29 1271.33 2145.92C1338.26 2118.83 1411.34 2080.52 1479.1 2039.19C1535.62 2004.79 1589.33 1964.97 1635.74 1918.83C1653.5 1901.26 1670.2 1883.16 1682.39 1863.54C1711.59 1817.6 1716.16 1771.86 1716.59 1733.09C1716.64 1721.74 1716.38 1710.74 1715.79 1699.77C1714.53 1676.88 1711.38 1655.73 1706.49 1633.79C1704.74 1625.12 1702.58 1615.54 1701.34 1604.93C1698.72 1585.94 1698.9 1564.19 1712.6 1542.56C1727.8 1518.6 1752.57 1507.99 1773.63 1501.49C1781.18 1498.96 1788.12 1497.11 1794.41 1495.63C1812.95 1491.23 1828.5 1487.39 1843.76 1484.21C1859.33 1480.68 1874.6 1477.5 1890.15 1473.66C1929.55 1464.34 1973.64 1454.62 2022.29 1414.91C2052.29 1390.32 2081.61 1353.82 2106.75 1311.69C2123.33 1284.14 2137.76 1255.21 2148.79 1225.93C2171.9 1163.81 2179.25 1107.13 2185.48 1053.06C2191.45 999.953 2197.55 948.414 2216.21 893.605C2224.85 867.992 2236.5 842.123 2249.81 815.8C2266.63 783.194 2286.06 749.422 2302.29 713.718C2318.48 677.7 2330.42 639.209 2333.78 607.114" stroke="url(#paint24_linear_1_38)" stroke-width="5" stroke-miterlimit="10"/>
<path opacity="0.3902" d="M966.258 2248.3C1039.54 2232.33 1141.96 2221.45 1257.21 2178.61C1325.65 2153.29 1400.51 2116.08 1469.27 2074.66C1526.16 2040.55 1580.5 2000.36 1626.53 1953.63C1644.26 1935.75 1660.58 1917.04 1672.76 1897.43C1701.22 1850.61 1704 1803.76 1702.31 1763.9C1702 1752.27 1701.02 1740.7 1699.76 1729.79C1697.1 1706.39 1692.54 1684.42 1686.27 1662.27C1683.85 1653.66 1681.3 1643.48 1679.4 1632.93C1675.74 1613.71 1675.23 1591.71 1689.24 1569.74C1704.74 1545.43 1729.9 1535.43 1751.69 1529.49C1759.6 1527.24 1766.9 1525.68 1773.22 1524.51C1792.5 1520.99 1809.14 1518 1825.82 1515.65C1842.48 1512.97 1859.17 1510.62 1875.8 1507.63C1918.1 1500.58 1965.08 1493.14 2016.18 1454.48C2047.6 1430.71 2077.94 1394.13 2103.75 1351.94C2120.66 1324.37 2135.07 1295.12 2145.73 1265.55C2168.12 1202.87 2174.02 1145.05 2178.13 1089.9C2182.32 1035.69 2186.3 983.067 2203.52 927.121C2211.76 900.911 2222.72 874.786 2235.67 848.178C2251.77 815.004 2271.5 780.891 2287.7 744.874C2304.24 708.828 2316.82 669.968 2320.82 637.503" stroke="url(#paint25_linear_1_38)" stroke-width="5" stroke-miterlimit="10"/>
<path opacity="0.3659" d="M936.275 2269.11C1015.01 2257.72 1121.16 2250.93 1240.02 2210.93C1309.96 2187.37 1386.27 2151.3 1456.4 2110.08C1513.96 2075.92 1568.64 2035.69 1614.58 1988.02C1632.29 1969.83 1648.58 1950.81 1660.04 1930.63C1687.72 1882.62 1688.38 1834.69 1684.94 1794.03C1683.93 1782.15 1682.26 1770.32 1680.63 1759.12C1676.58 1735.22 1670.62 1712.73 1662.96 1690.07C1659.85 1681.2 1656.96 1671.05 1654.36 1660.25C1649.98 1640.46 1648.77 1618.2 1662.78 1596.23C1678.25 1571.61 1704.13 1562.18 1726.64 1556.8C1734.92 1554.84 1742.58 1553.56 1749.26 1552.68C1769.63 1550.01 1787.35 1547.88 1804.79 1546.4C1822.53 1544.59 1840.31 1543.08 1858.03 1540.95C1903.19 1535.86 1953.07 1530.69 2006.62 1493.08C2039.43 1469.83 2070.8 1433.47 2097.28 1391.23C2114.19 1363.66 2129.25 1334.04 2139.55 1304.19C2161.54 1240.91 2165.36 1182.32 2168.02 1126.03C2170.43 1070.71 2171.98 1017.35 2188.08 960.239C2195.61 933.46 2206.18 906.739 2219.1 879.818C2234.11 845.79 2253.49 811.394 2269.99 775.035C2286.5 738.677 2299.78 700.072 2305.1 667.181" stroke="url(#paint26_linear_1_38)" stroke-width="5" stroke-miterlimit="10"/>
<path opacity="0.3415" d="M903.115 2288.3C987.279 2281.17 1097.17 2278.78 1219.66 2241.64C1291.43 2219.81 1369.19 2184.87 1440.33 2143.57C1498.58 2109.66 1553.54 2068.78 1599.46 2020.8C1616.83 2002.63 1633.07 1982.99 1644.48 1962.18C1671.4 1913.29 1670.26 1863.94 1664.7 1822.2C1663 1810.07 1660.96 1797.95 1658.3 1786.53C1652.85 1762.11 1645.5 1739.11 1636.45 1715.94C1633 1707.1 1629.08 1696.72 1626.11 1685.63C1620.7 1665.62 1618.79 1643.11 1632.78 1620.82C1648.25 1596.2 1674.83 1587.02 1698.09 1582.53C1706.73 1580.85 1714.42 1579.89 1721.46 1579.29C1742.58 1577.5 1761.39 1576.22 1780.24 1575.57C1799.07 1574.6 1817.9 1573.64 1836.74 1572.67C1884.79 1569.86 1937.54 1566.65 1993.55 1530.1C2027.76 1507.36 2060.52 1471.51 2087.3 1428.93C2104.55 1401.32 2119.6 1371.7 2129.52 1341.26C2151.1 1277.07 2153.16 1217.68 2153.73 1160.63C2154.38 1104.51 2153.79 1049.76 2168.45 991.508C2175.25 964.161 2185.45 937.155 2197.98 909.637C2213.33 875.581 2232.32 840.587 2249.16 804.2C2265.98 767.501 2279.59 728.868 2285.92 695.892" stroke="url(#paint27_linear_1_38)" stroke-width="5" stroke-miterlimit="10"/>
<path opacity="0.3171" d="M865.922 2303.73C955.539 2301.18 1069.16 2302.89 1195.24 2268.27C1268.51 2248.21 1348.05 2214.38 1419.88 2173.34C1478.83 2139.68 1534.1 2098.46 1579.94 2049.54C1597.29 2031.06 1613.5 2011.11 1624.54 1990.01C1650.7 1939.93 1647.77 1889.47 1639.78 1846.99C1637.38 1834.6 1634.64 1822.23 1631.6 1810.21C1624.76 1785.28 1616.01 1761.76 1605.56 1738.08C1601.42 1728.99 1597.16 1718.64 1593.5 1707.3C1587.06 1687.05 1584.76 1663.94 1598.74 1641.66C1614.19 1616.72 1641.49 1608.11 1665.48 1604.19C1674.14 1602.83 1682.53 1602.12 1689.93 1601.8C1712.14 1600.87 1732.03 1600.44 1751.97 1600.64C1771.89 1600.53 1791.8 1600.42 1812.06 1600.28C1862.64 1599.45 1918.65 1598.8 1976.75 1563.02C2012.71 1541.07 2046.14 1505.17 2073.6 1462.53C2091.19 1434.9 2106.21 1404.96 2116.1 1374.2C2136.96 1309.45 2137.6 1249.24 2136.02 1190.79C2134.55 1133.59 2132.18 1077.73 2145.42 1018.66C2151.52 991.053 2161.31 963.138 2173.48 935.336C2188.47 900.996 2207.09 865.717 2223.91 829.018C2240.73 792.318 2255.01 753.628 2262.62 719.913" stroke="url(#paint28_linear_1_38)" stroke-width="5" stroke-miterlimit="10"/>
<path opacity="0.2927" d="M825.527 2317.23C920.571 2318.95 1038.28 2325.03 1167.3 2293.32C1242.41 2274.98 1323.4 2242.3 1396.26 2201.48C1455.91 2168.08 1511.49 2126.52 1557.25 2076.66C1574.57 2057.87 1590.42 2037.63 1601.41 2015.91C1626.81 1964.94 1621.77 1913.4 1611.97 1869.51C1609.18 1856.52 1605.77 1844.21 1601.7 1831.95C1593.44 1806.2 1583.29 1782.17 1571.5 1758.61C1566.66 1749.25 1561.71 1738.65 1557.71 1727.34C1550.57 1706.84 1547.24 1683.5 1561.53 1660.87C1576.96 1635.63 1604.96 1627.27 1629.69 1624.23C1638.72 1623.15 1647.46 1622.73 1654.89 1622.73C1677.85 1622.67 1698.83 1623.1 1719.85 1624.15C1741.19 1624.86 1762.19 1625.6 1783.19 1626.34C1836.68 1627.8 1895.55 1629.11 1956.1 1594.37C1993.46 1572.94 2028.26 1537.23 2056.05 1494.57C2073.97 1466.91 2088.97 1436.66 2098.5 1405.62C2118.97 1340.26 2117.82 1278.94 2114.49 1219.7C2111.27 1161.7 2106.75 1104.45 2118.87 1044.21C2124.59 1016.01 2133.69 987.84 2145.49 959.754C2160.07 924.504 2178.66 888.913 2195.48 852.214C2212.61 815.173 2227.22 776.455 2235.84 742.654" stroke="url(#paint29_linear_1_38)" stroke-width="5" stroke-miterlimit="10"/>
<path opacity="0.2683" d="M780.895 2328.57C881.394 2334.86 1002.82 2345.05 1135.47 2316.17C1212.05 2299.29 1294.51 2268.05 1368.72 2227.12C1429.06 2193.97 1484.95 2152.07 1530.32 2101.62C1547.61 2082.51 1563.43 2061.96 1573.73 2039.99C1598.36 1987.82 1591.53 1935.17 1579.64 1890.51C1576.15 1877.27 1572.05 1864.7 1567.61 1852.16C1558.29 1825.87 1546.42 1801.36 1532.9 1777.31C1527.72 1767.99 1522.07 1757.13 1517.71 1745.53C1509.51 1724.49 1505.85 1701.18 1519.78 1678.27C1535.54 1652.99 1563.9 1644.92 1589.38 1642.76C1598.77 1641.97 1607.52 1641.54 1615.67 1642.11C1639.72 1642.91 1661.8 1644.5 1683.86 1645.78C1706.29 1647.35 1728.37 1648.94 1750.46 1650.53C1806.84 1654.26 1868.58 1657.53 1931.58 1623.85C1970.36 1603.24 2006.17 1567.45 2034.63 1524.73C2052.89 1497.04 2067.86 1466.48 2077.36 1435.12C2097.08 1368.89 2094.2 1307.08 2089.09 1246.73C2084.08 1187.63 2077.48 1129.61 2088.15 1068.23C2093.14 1039.46 2101.88 1011.01 2113.29 982.324C2127.48 946.477 2145.72 910.601 2162.84 873.561C2179.94 836.207 2195.59 797.716 2205.19 763.518" stroke="url(#paint30_linear_1_38)" stroke-width="5" stroke-miterlimit="10"/>
<path opacity="0.2439" d="M732.389 2338.04C838.315 2348.59 963.494 2363.18 1099.75 2337.15C1178.17 2322 1262.08 2291.9 1337.32 2251.2C1398.34 2217.99 1454.56 2176.07 1499.85 2124.67C1517.12 2105.26 1532.91 2084.39 1542.82 2061.82C1566.69 2008.77 1558.06 1954.7 1544.05 1908.96C1539.87 1895.46 1535.4 1882.61 1530.27 1869.82C1519.55 1843.01 1506.62 1817.96 1491.37 1793.43C1485.5 1783.85 1479.51 1773.02 1474.46 1761.16C1465.22 1739.9 1460.84 1716.02 1475.1 1693.08C1490.84 1667.49 1519.92 1659.99 1546.13 1658.4C1555.88 1657.89 1564.98 1657.74 1573.14 1658.31C1598.27 1659.96 1621.44 1662.41 1644.59 1664.54C1668.09 1666.96 1691.27 1669.41 1714.75 1671.51C1773.99 1677.2 1838.63 1682.75 1903.75 1650.14C1943.93 1630.05 1981.12 1594.77 2009.56 1551.73C2028.13 1523.7 2043.1 1493.14 2052.24 1461.5C2071.57 1394.67 2066.91 1331.76 2059.68 1270.33C2052.89 1210.12 2043.83 1151.04 2053.39 1088.5C2057.66 1059.16 2066.01 1030.11 2077.06 1001.14C2090.89 965.011 2108.74 928.539 2126.17 891.157C2143.6 853.775 2159.56 814.943 2170.14 780.347" stroke="url(#paint31_linear_1_38)" stroke-width="5" stroke-miterlimit="10"/>
<path opacity="0.2195" d="M679.313 2345.37C790.692 2360.5 919.596 2379.18 1059.45 2355.68C1139.37 2342.29 1225.06 2313.3 1301.3 2272.51C1363.02 2239.57 1419.55 2197.3 1464.79 2145.28C1482.03 2125.55 1497.43 2104.09 1507.31 2081.2C1530.44 2027.28 1519.69 1972.13 1503.56 1925.3C1498.68 1911.54 1493.49 1898.13 1487.68 1885.39C1475.58 1858.07 1461.23 1832.2 1444.61 1807.47C1438.4 1797.91 1431.35 1786.54 1425.96 1774.72C1416.03 1753.2 1410.95 1729.06 1424.85 1705.84C1440.56 1679.94 1470.36 1673 1497.3 1671.98C1507.07 1671.78 1516.88 1671.9 1525.39 1672.75C1551.27 1675.28 1575.53 1678.58 1599.76 1681.57C1624.36 1684.84 1648.61 1688.14 1673.18 1691.09C1735.32 1699.06 1802.52 1706.91 1870.4 1675.02C1911.97 1655.43 1950.2 1620.38 1979.31 1577.29C1998.21 1549.23 2013.15 1518.36 2021.93 1486.43C2040.87 1419 2034.46 1355.29 2025.45 1292.75C2016.56 1231.77 2005.7 1171.28 2013.84 1107.91C2017.38 1078.01 2025.37 1048.67 2036.03 1019.1C2049.47 982.377 2067.29 945.592 2084.36 907.926C2101.77 870.231 2118.43 831.655 2130.32 796.632" stroke="url(#paint32_linear_1_38)" stroke-width="5" stroke-miterlimit="10"/>
<path opacity="0.1951" d="M622.334 2350.51C739.141 2369.91 872.131 2392.97 1015.27 2372.34C1097.02 2360.69 1183.82 2332.86 1261.43 2292.27C1323.85 2259.58 1380.69 2216.97 1425.85 2164.01C1443.06 2143.97 1458.44 2122.2 1467.62 2099.06C1489.97 2043.94 1477.44 1987.68 1459.22 1940.09C1453.98 1926.04 1448.09 1912.37 1441.56 1899.06C1428.03 1870.92 1412.31 1844.85 1394.3 1819.61C1387.39 1809.8 1380.01 1798.45 1373.92 1786.37C1362.96 1764.62 1357.15 1739.92 1371.4 1716.67C1387.1 1690.77 1417.27 1684.12 1445.62 1683.92C1455.73 1683.69 1465.59 1684.43 1474.47 1685.57C1501.43 1688.96 1526.78 1693.11 1552.09 1696.95C1577.77 1701.07 1603.45 1705.19 1628.77 1709.03C1693.78 1718.96 1763.87 1729.08 1834.2 1698.24C1877.19 1679.48 1916.43 1644.35 1946.21 1601.19C1965.44 1573.11 1980.36 1541.92 1989.11 1509.69C2007.3 1441.38 1999.14 1376.87 1988.37 1313.53C1977.7 1251.45 1964.72 1189.87 1971.41 1125.37C1974.59 1095.18 1981.85 1065.27 1992.13 1035.11C2004.84 997.813 2022.64 960.715 2040.05 923.02C2057.76 884.985 2074.76 846.38 2087.65 811.272" stroke="url(#paint33_linear_1_38)" stroke-width="5" stroke-miterlimit="10"/>
<path opacity="0.1707" d="M560.452 2353.55C682.712 2377.52 819.399 2404.36 966.178 2386.89C1049.43 2377 1138.02 2350.28 1216.33 2309.95C1279.44 2277.52 1336.59 2234.56 1381.67 2180.67C1398.85 2160.31 1413.87 2138.25 1423 2114.49C1444.6 2058.49 1430.26 2000.81 1409.92 1952.14C1403.98 1937.84 1397.4 1923.91 1390.51 1910.32C1375.58 1881.66 1358.47 1855.08 1339.06 1829.32C1331.46 1819.26 1323.41 1807.97 1316.96 1795.61C1304.94 1773.32 1298.79 1748.64 1313.01 1725.08C1328.69 1698.87 1359.58 1692.78 1388.65 1693.16C1399.13 1693.21 1409.35 1694.24 1418.59 1695.66C1446.3 1699.92 1472.73 1704.93 1499.47 1709.59C1526.23 1714.57 1553 1719.55 1579.73 1724.21C1647.64 1736.41 1720.59 1748.49 1793.38 1718.71C1837.77 1700.46 1878.37 1665.52 1908.49 1622.34C1928.06 1594.23 1942.98 1563.04 1951.34 1530.21C1969.14 1461.3 1959.22 1396 1946.64 1331.24C1934.19 1268.04 1919.12 1205.7 1924.36 1140.06C1926.82 1109.3 1933.69 1078.8 1943.64 1048.67C1955.99 1011.08 1973.39 973.39 1991.11 935.354C2008.83 897.319 2026.8 858.316 2040.68 822.811" stroke="url(#paint34_linear_1_38)" stroke-width="5" stroke-miterlimit="10"/>
<path opacity="0.1463" d="M493.972 2354.14C621.659 2382.38 762.433 2413.6 912.468 2398.68C997.532 2390.22 1087.59 2364.95 1166.91 2324.53C1230.68 2292.04 1288.17 2249.06 1333.2 2194.54C1350.36 2173.87 1365.35 2151.5 1374.12 2127.45C1394.94 2070.25 1378.48 2011.49 1356.05 1962.05C1349.41 1947.5 1342.47 1933.28 1334.54 1919.47C1318.23 1890.3 1299.69 1862.89 1278.92 1836.94C1270.98 1826.9 1262.23 1815.36 1255.08 1802.74C1242.37 1780.19 1235.19 1755.29 1249.38 1731.41C1265.03 1704.89 1296.62 1699.06 1326.45 1700.32C1337.28 1700.66 1347.86 1701.97 1357.13 1703.7C1385.96 1709.13 1413.44 1714.68 1440.93 1720.22C1468.78 1726.05 1496.6 1731.57 1524.45 1737.4C1595.22 1751.56 1671.1 1766.23 1745.98 1737.21C1791.76 1719.47 1833.4 1684.77 1864.18 1641.53C1884.09 1613.39 1898.98 1581.89 1907.32 1548.74C1924.73 1479.24 1913.03 1412.83 1898.36 1347.3C1884.15 1283.31 1866.93 1219.57 1870.73 1152.79C1872.47 1121.47 1878.98 1090.68 1888.53 1059.95C1900.49 1021.77 1917.54 983.792 1935.56 945.415C1953.59 907.038 1971.92 868.32 1986.78 832.417" stroke="url(#paint35_linear_1_38)" stroke-width="5" stroke-miterlimit="10"/>
<path opacity="0.122" d="M422.532 2352.01C555.673 2384.82 700.17 2420.13 853.823 2408.06C940.388 2401.36 1031.89 2377.23 1112.58 2337.01C1177.05 2304.77 1234.85 2261.45 1279.46 2206.02C1296.26 2185.07 1311.22 2162.38 1319.94 2137.71C1340.01 2079.63 1321.77 2019.76 1297.2 1968.93C1289.86 1954.12 1282.22 1939.65 1273.93 1925.55C1256.22 1895.87 1236.29 1867.95 1214.12 1841.48C1205.49 1831.19 1196.38 1819.36 1188.59 1807.11C1174.84 1784.34 1167.27 1758.84 1181.46 1734.96C1197.42 1708.1 1229.4 1702.87 1259.95 1704.69C1271.15 1705.31 1281.75 1706.94 1291.71 1708.93C1321.29 1715.24 1350.2 1721.61 1378.77 1728.01C1407.71 1734.69 1436.62 1741.06 1465.55 1747.74C1538.88 1764.2 1617.96 1780.81 1695.3 1752.84C1742.5 1735.93 1785.5 1701.42 1816.6 1657.84C1836.84 1629.67 1851.7 1597.86 1859.68 1564.43C1876.34 1494.04 1863.24 1427.12 1846.45 1360.51C1830.47 1295.41 1811.13 1230.6 1813.51 1162.99C1814.52 1131.1 1820.64 1099.71 1829.83 1068.7C1841.41 1029.92 1858.43 991.633 1876.12 953.285C1894.12 914.595 1913.12 875.82 1929.32 839.803" stroke="url(#paint36_linear_1_38)" stroke-width="5" stroke-miterlimit="10"/>
<path opacity="0.073171" d="M264.182 2340.54C408.538 2382.17 560.484 2425.67 721.038 2419.31C811.247 2415.76 905.672 2394.22 988.396 2354.14C1053.9 2322.13 1112.68 2278.42 1157.16 2221.42C1173.9 2199.84 1188.81 2176.53 1196.45 2151.01C1214.99 2090.85 1192.82 2028.48 1164.4 1976.09C1156.01 1960.74 1146.97 1945.75 1137.29 1931.14C1117.1 1900.1 1094.05 1871.18 1068.78 1844.03C1059.11 1833.51 1048.64 1821.49 1040.12 1808.67C1024.64 1785.41 1015.68 1759.4 1029.82 1734.9C1045.75 1707.72 1079.15 1703.32 1111.17 1706.59C1122.76 1707.81 1134.09 1710 1144.78 1712.56C1176.19 1720.6 1207.27 1728.68 1238.01 1736.78C1269.12 1745.17 1300.53 1753.22 1331.61 1761.29C1410.7 1781.99 1495.55 1802.84 1577.81 1777.28C1628.14 1761.37 1673.21 1727.31 1704.97 1683.68C1725.55 1655.48 1741.03 1622.99 1748.31 1589.3C1763.86 1517.75 1747.2 1448.61 1726.87 1380.1C1707.01 1313.12 1683.44 1246.14 1683.59 1176.21C1683.52 1143.46 1688.55 1111.22 1697.33 1079.3C1708.16 1039.64 1724.4 1000.15 1742.73 961.437C1761.04 922.406 1781.05 883.546 1799.54 846.705" stroke="url(#paint37_linear_1_38)" stroke-width="5" stroke-miterlimit="10"/>
<path opacity="0.04878" d="M176.857 2330.3C326.667 2376.51 482.646 2423.76 646.509 2420.59C738.553 2418.77 834.091 2398.4 918.182 2358.52C984.387 2326.77 1043.47 2282.71 1087.87 2224.77C1104.59 2202.88 1119.11 2178.98 1126.72 2153.13C1144.48 2091.79 1120.53 2028.31 1089.66 1974.86C1080.57 1959.25 1071.14 1943.67 1060.77 1928.81C1039.18 1897.25 1014.74 1867.82 988.076 1840.16C977.707 1829.39 966.561 1817.42 957.683 1804.31C941.145 1780.52 931.49 1754.25 945.959 1729.72C961.867 1702.23 995.99 1698.39 1028.74 1702.23C1040.68 1703.74 1052.38 1706.21 1063.09 1709.09C1095.59 1717.99 1127.42 1726.94 1159.58 1735.87C1192.08 1744.77 1224.27 1754.01 1256.77 1762.91C1338.76 1785.88 1426.47 1808.69 1510.86 1784.22C1562.6 1769.12 1608.68 1734.98 1641.11 1691.29C1662 1662.75 1677.48 1630.26 1684.4 1596.29C1699.53 1523.83 1681.14 1454.21 1658.69 1384.61C1637.05 1316.53 1611.36 1248.47 1610.09 1177.71C1609.3 1144.39 1613.95 1111.56 1622.36 1079.35C1632.8 1039.1 1648.68 999.327 1667.32 960.268C1685.94 920.896 1706.64 882.292 1725.78 845.081" stroke="url(#paint38_linear_1_38)" stroke-width="5" stroke-miterlimit="10"/>
<path opacity="0.02439" d="M83.8774 2317.08C239.115 2367.55 399.179 2419.18 566.325 2418.88C659.87 2418.83 757.19 2399.56 841.951 2359.62C908.853 2328.12 968.245 2283.72 1012.59 2225.16C1029.28 2202.96 1043.78 2178.74 1050.69 2152.65C1067.37 2090.45 1041.63 2025.86 1008.98 1971.3C999.53 1955.41 989.072 1939.6 978.332 1924.45C955.352 1892.38 929.486 1862.13 901.459 1834.27C890.419 1823.56 878.885 1810.99 869.337 1797.94C851.766 1773.92 841.749 1747.37 855.857 1722.55C871.765 1695.06 906.558 1691.17 940.081 1696.2C952.391 1697.99 964.445 1700.75 975.519 1703.91C1008.77 1713.69 1042.02 1723.47 1074.93 1733.28C1108.52 1743.03 1141.8 1753.12 1175.38 1762.88C1260.24 1787.81 1350.87 1813.2 1437.68 1789.47C1490.82 1774.89 1537.95 1741.29 1571.03 1697.23C1592.25 1668.66 1607.71 1635.86 1614.6 1601.57C1629.35 1528.51 1609.17 1457.78 1584.94 1387.08C1561.21 1318.23 1533.71 1248.75 1530.99 1176.85C1529.47 1142.97 1533.76 1109.85 1541.79 1077.04C1551.84 1036.19 1567.69 996.109 1586 957.079C1604.61 917.707 1625.97 878.733 1646.42 841.096" stroke="url(#paint39_linear_1_38)" stroke-width="5" stroke-miterlimit="10"/>
</g>
<defs>
<linearGradient id="paint0_linear_1_38" x1="2279.77" y1="878.142" x2="1073.54" y2="980.341" gradientUnits="userSpaceOnUse">
<stop stop-color="white"/>
<stop offset="0.640625" stop-color="#4A6ADB"/>
<stop offset="1" stop-color="white"/>
</linearGradient>
<linearGradient id="paint1_linear_1_38" x1="2283.52" y1="879.398" x2="1071.32" y2="982.103" gradientUnits="userSpaceOnUse">
<stop stop-color="white"/>
<stop offset="0.640625" stop-color="#4A6ADB"/>
<stop offset="1" stop-color="white"/>
</linearGradient>
<linearGradient id="paint2_linear_1_38" x1="2287.87" y1="883.755" x2="1070.17" y2="986.926" gradientUnits="userSpaceOnUse">
<stop stop-color="white"/>
<stop offset="0.640625" stop-color="#4A6ADB"/>
<stop offset="1" stop-color="white"/>
</linearGradient>
<linearGradient id="paint3_linear_1_38" x1="2294.98" y1="889.452" x2="1069.64" y2="993.271" gradientUnits="userSpaceOnUse">
<stop stop-color="white"/>
<stop offset="0.640625" stop-color="#4A6ADB"/>
<stop offset="1" stop-color="white"/>
</linearGradient>
<linearGradient id="paint4_linear_1_38" x1="2302.49" y1="898.578" x2="1069.77" y2="1003.02" gradientUnits="userSpaceOnUse">
<stop stop-color="white"/>
<stop offset="0.640625" stop-color="#4A6ADB"/>
<stop offset="1" stop-color="white"/>
</linearGradient>
<linearGradient id="paint5_linear_1_38" x1="2310.48" y1="909.712" x2="1070.22" y2="1014.79" gradientUnits="userSpaceOnUse">
<stop stop-color="white"/>
<stop offset="0.640625" stop-color="#4A6ADB"/>
<stop offset="1" stop-color="white"/>
</linearGradient>
<linearGradient id="paint6_linear_1_38" x1="2319.24" y1="923.144" x2="1070.57" y2="1028.94" gradientUnits="userSpaceOnUse">
<stop stop-color="white"/>
<stop offset="0.640625" stop-color="#4A6ADB"/>
<stop offset="1" stop-color="white"/>
</linearGradient>
<linearGradient id="paint7_linear_1_38" x1="2330.02" y1="937.979" x2="1071.46" y2="1044.61" gradientUnits="userSpaceOnUse">
<stop stop-color="white"/>
<stop offset="0.640625" stop-color="#4A6ADB"/>
<stop offset="1" stop-color="white"/>
</linearGradient>
<linearGradient id="paint8_linear_1_38" x1="2339.71" y1="955.266" x2="1071.58" y2="1062.71" gradientUnits="userSpaceOnUse">
<stop stop-color="white"/>
<stop offset="0.640625" stop-color="#4A6ADB"/>
<stop offset="1" stop-color="white"/>
</linearGradient>
<linearGradient id="paint9_linear_1_38" x1="2349.91" y1="973.93" x2="1071.82" y2="1082.22" gradientUnits="userSpaceOnUse">
<stop stop-color="white"/>
<stop offset="0.640625" stop-color="#4A6ADB"/>
<stop offset="1" stop-color="white"/>
</linearGradient>
<linearGradient id="paint10_linear_1_38" x1="2361.75" y1="993.713" x2="1071.14" y2="1103.06" gradientUnits="userSpaceOnUse">
<stop stop-color="white"/>
<stop offset="0.640625" stop-color="#4A6ADB"/>
<stop offset="1" stop-color="white"/>
</linearGradient>
<linearGradient id="paint11_linear_1_38" x1="2372.37" y1="1015.49" x2="1069.74" y2="1125.86" gradientUnits="userSpaceOnUse">
<stop stop-color="white"/>
<stop offset="0.640625" stop-color="#4A6ADB"/>
<stop offset="1" stop-color="white"/>
</linearGradient>
<linearGradient id="paint12_linear_1_38" x1="2382.66" y1="1038.24" x2="1067.7" y2="1149.65" gradientUnits="userSpaceOnUse">
<stop stop-color="white"/>
<stop offset="0.640625" stop-color="#4A6ADB"/>
<stop offset="1" stop-color="white"/>
</linearGradient>
<linearGradient id="paint13_linear_1_38" x1="2392" y1="1062.17" x2="1065.09" y2="1174.6" gradientUnits="userSpaceOnUse">
<stop stop-color="white"/>
<stop offset="0.640625" stop-color="#4A6ADB"/>
<stop offset="1" stop-color="white"/>
</linearGradient>
<linearGradient id="paint14_linear_1_38" x1="2400.66" y1="1087.26" x2="1061.22" y2="1200.75" gradientUnits="userSpaceOnUse">
<stop stop-color="white"/>
<stop offset="0.640625" stop-color="#4A6ADB"/>
<stop offset="1" stop-color="white"/>
</linearGradient>
<linearGradient id="paint15_linear_1_38" x1="2408.71" y1="1112.72" x2="1056.38" y2="1227.3" gradientUnits="userSpaceOnUse">
<stop stop-color="white"/>
<stop offset="0.640625" stop-color="#4A6ADB"/>
<stop offset="1" stop-color="white"/>
</linearGradient>
<linearGradient id="paint16_linear_1_38" x1="2414.6" y1="1139" x2="1050.25" y2="1254.59" gradientUnits="userSpaceOnUse">
<stop stop-color="white"/>
<stop offset="0.640625" stop-color="#4A6ADB"/>
<stop offset="1" stop-color="white"/>
</linearGradient>
<linearGradient id="paint17_linear_1_38" x1="2419.51" y1="1165.67" x2="1042.13" y2="1282.37" gradientUnits="userSpaceOnUse">
<stop stop-color="white"/>
<stop offset="0.640625" stop-color="#4A6ADB"/>
<stop offset="1" stop-color="white"/>
</linearGradient>
<linearGradient id="paint18_linear_1_38" x1="2422.31" y1="1192.83" x2="1032.7" y2="1310.57" gradientUnits="userSpaceOnUse">
<stop stop-color="white"/>
<stop offset="0.640625" stop-color="#4A6ADB"/>
<stop offset="1" stop-color="white"/>
</linearGradient>
<linearGradient id="paint19_linear_1_38" x1="2424.2" y1="1219.91" x2="1021.25" y2="1338.78" gradientUnits="userSpaceOnUse">
<stop stop-color="white"/>
<stop offset="0.640625" stop-color="#4A6ADB"/>
<stop offset="1" stop-color="white"/>
</linearGradient>
<linearGradient id="paint20_linear_1_38" x1="2422.83" y1="1247.59" x2="1007.8" y2="1367.48" gradientUnits="userSpaceOnUse">
<stop stop-color="white"/>
<stop offset="0.640625" stop-color="#4A6ADB"/>
<stop offset="1" stop-color="white"/>
</linearGradient>
<linearGradient id="paint21_linear_1_38" x1="2420.44" y1="1275.19" x2="992.002" y2="1396.22" gradientUnits="userSpaceOnUse">
<stop stop-color="white"/>
<stop offset="0.640625" stop-color="#4A6ADB"/>
<stop offset="1" stop-color="white"/>
</linearGradient>
<linearGradient id="paint22_linear_1_38" x1="2415.95" y1="1301.87" x2="973.76" y2="1424.06" gradientUnits="userSpaceOnUse">
<stop stop-color="white"/>
<stop offset="0.640625" stop-color="#4A6ADB"/>
<stop offset="1" stop-color="white"/>
</linearGradient>
<linearGradient id="paint23_linear_1_38" x1="2408.41" y1="1328.49" x2="953.145" y2="1451.79" gradientUnits="userSpaceOnUse">
<stop stop-color="white"/>
<stop offset="0.640625" stop-color="#4A6ADB"/>
<stop offset="1" stop-color="white"/>
</linearGradient>
<linearGradient id="paint24_linear_1_38" x1="2397.13" y1="1354.8" x2="929.794" y2="1479.12" gradientUnits="userSpaceOnUse">
<stop stop-color="white"/>
<stop offset="0.640625" stop-color="#4A6ADB"/>
<stop offset="1" stop-color="white"/>
</linearGradient>
<linearGradient id="paint25_linear_1_38" x1="2383.75" y1="1380.19" x2="903.333" y2="1505.62" gradientUnits="userSpaceOnUse">
<stop stop-color="white"/>
<stop offset="0.640625" stop-color="#4A6ADB"/>
<stop offset="1" stop-color="white"/>
</linearGradient>
<linearGradient id="paint26_linear_1_38" x1="2367.6" y1="1404.86" x2="873.774" y2="1531.43" gradientUnits="userSpaceOnUse">
<stop stop-color="white"/>
<stop offset="0.640625" stop-color="#4A6ADB"/>
<stop offset="1" stop-color="white"/>
</linearGradient>
<linearGradient id="paint27_linear_1_38" x1="2348" y1="1428.66" x2="841.099" y2="1556.33" gradientUnits="userSpaceOnUse">
<stop stop-color="white"/>
<stop offset="0.640625" stop-color="#4A6ADB"/>
<stop offset="1" stop-color="white"/>
</linearGradient>
<linearGradient id="paint28_linear_1_38" x1="2324.56" y1="1450.97" x2="804.582" y2="1579.75" gradientUnits="userSpaceOnUse">
<stop stop-color="white"/>
<stop offset="0.640625" stop-color="#4A6ADB"/>
<stop offset="1" stop-color="white"/>
</linearGradient>
<linearGradient id="paint29_linear_1_38" x1="2297.68" y1="1472.55" x2="764.962" y2="1602.41" gradientUnits="userSpaceOnUse">
<stop stop-color="white"/>
<stop offset="0.640625" stop-color="#4A6ADB"/>
<stop offset="1" stop-color="white"/>
</linearGradient>
<linearGradient id="paint30_linear_1_38" x1="2266.97" y1="1492.7" x2="721.172" y2="1623.67" gradientUnits="userSpaceOnUse">
<stop stop-color="white"/>
<stop offset="0.640625" stop-color="#4A6ADB"/>
<stop offset="1" stop-color="white"/>
</linearGradient>
<linearGradient id="paint31_linear_1_38" x1="2231.99" y1="1510.31" x2="673.447" y2="1642.36" gradientUnits="userSpaceOnUse">
<stop stop-color="white"/>
<stop offset="0.640625" stop-color="#4A6ADB"/>
<stop offset="1" stop-color="white"/>
</linearGradient>
<linearGradient id="paint32_linear_1_38" x1="2192.19" y1="1526.86" x2="621.241" y2="1659.96" gradientUnits="userSpaceOnUse">
<stop stop-color="white"/>
<stop offset="0.640625" stop-color="#4A6ADB"/>
<stop offset="1" stop-color="white"/>
</linearGradient>
<linearGradient id="paint33_linear_1_38" x1="2149.55" y1="1541.79" x2="565.188" y2="1676.03" gradientUnits="userSpaceOnUse">
<stop stop-color="white"/>
<stop offset="0.640625" stop-color="#4A6ADB"/>
<stop offset="1" stop-color="white"/>
</linearGradient>
<linearGradient id="paint34_linear_1_38" x1="2102.65" y1="1554.3" x2="504.21" y2="1689.73" gradientUnits="userSpaceOnUse">
<stop stop-color="white"/>
<stop offset="0.640625" stop-color="#4A6ADB"/>
<stop offset="1" stop-color="white"/>
</linearGradient>
<linearGradient id="paint35_linear_1_38" x1="2048.83" y1="1564.82" x2="438.655" y2="1701.25" gradientUnits="userSpaceOnUse">
<stop stop-color="white"/>
<stop offset="0.640625" stop-color="#4A6ADB"/>
<stop offset="1" stop-color="white"/>
</linearGradient>
<linearGradient id="paint36_linear_1_38" x1="1991.45" y1="1573.12" x2="368.192" y2="1710.65" gradientUnits="userSpaceOnUse">
<stop stop-color="white"/>
<stop offset="0.640625" stop-color="#4A6ADB"/>
<stop offset="1" stop-color="white"/>
</linearGradient>
<linearGradient id="paint37_linear_1_38" x1="1861.87" y1="1582.39" x2="211.792" y2="1722.2" gradientUnits="userSpaceOnUse">
<stop stop-color="white"/>
<stop offset="0.640625" stop-color="#4A6ADB"/>
<stop offset="1" stop-color="white"/>
</linearGradient>
<linearGradient id="paint38_linear_1_38" x1="1788.26" y1="1582.55" x2="125.439" y2="1723.43" gradientUnits="userSpaceOnUse">
<stop stop-color="white"/>
<stop offset="0.640625" stop-color="#4A6ADB"/>
<stop offset="1" stop-color="white"/>
</linearGradient>
<linearGradient id="paint39_linear_1_38" x1="1709.03" y1="1580.14" x2="33.4678" y2="1722.11" gradientUnits="userSpaceOnUse">
<stop stop-color="white"/>
<stop offset="0.640625" stop-color="#4A6ADB"/>
<stop offset="1" stop-color="white"/>
</linearGradient>
</defs>
</svg>
